<svg id="Layer_1" data-name="Layer 1" xmlns="http://www.w3.org/2000/svg" viewBox="0 0 283.46 283.46"><defs><style>.cls-1{fill:#43b649;}</style></defs><title>19.108_V&amp;amp;D_Iconen-Site_01</title><rect class="cls-1" x="145.12" y="163.69" width="21.49" height="14.86"/><rect class="cls-1" x="118.85" y="163.69" width="21.49" height="14.86"/><rect class="cls-1" x="145.12" y="143.87" width="21.49" height="14.86"/><rect class="cls-1" x="118.85" y="143.87" width="21.49" height="14.86"/><path class="cls-1" d="M97.36,163.69a2.48,2.48,0,0,1,0-4.95h16.72V143.87H97.36a2.48,2.48,0,0,1,0-5h16.72v-7.43a2.39,2.39,0,1,1,4.77,0v7.43h21.5v-7.43a2.39,2.39,0,1,1,4.77,0v7.43h21.49v-7.43a2.39,2.39,0,1,1,4.78,0v7.43h16.72a2.48,2.48,0,0,1,0,5H171.39v14.87h16.72a2.48,2.48,0,0,1,0,4.95H171.39v14.86h16.72a2.48,2.48,0,0,1,0,4.95H171.39v7.44a2.39,2.39,0,1,1-4.78,0V183.5H145.12v7.44a2.39,2.39,0,1,1-4.77,0V183.5h-21.5v7.44a2.39,2.39,0,1,1-4.77,0V183.5H97.36a2.48,2.48,0,0,1,0-4.95h16.72V163.69ZM85.42,200.84a2.43,2.43,0,0,0,2.38,2.48H197.66a2.44,2.44,0,0,0,2.39-2.48V124.06H85.42Z"/><path class="cls-1" d="M176.17,104.24h-9.56V89.38h9.56Zm-57.32,0h-9.56V89.38h9.56Zm78.81-9.9H180.94V86.9a2.43,2.43,0,0,0-2.39-2.47H164.22a2.43,2.43,0,0,0-2.38,2.47v7.44H123.62V86.9a2.43,2.43,0,0,0-2.38-2.47H106.91a2.43,2.43,0,0,0-2.39,2.47v7.44H87.8a2.43,2.43,0,0,0-2.38,2.47V119.1H200.05V96.81a2.43,2.43,0,0,0-2.39-2.47"/></svg>