<?xml version="1.0" encoding="UTF-8" standalone="no"?>
<!-- Created with Inkscape (http://www.inkscape.org/) -->

<svg
   xmlns:dc="http://purl.org/dc/elements/1.1/"
   xmlns:cc="http://creativecommons.org/ns#"
   xmlns:rdf="http://www.w3.org/1999/02/22-rdf-syntax-ns#"
   xmlns:svg="http://www.w3.org/2000/svg"
   xmlns="http://www.w3.org/2000/svg"
   xmlns:sodipodi="http://sodipodi.sourceforge.net/DTD/sodipodi-0.dtd"
   xmlns:inkscape="http://www.inkscape.org/namespaces/inkscape"
   width="1052.3622"
   height="744.09448"
   id="svg2"
   version="1.1"
   inkscape:version="0.48.5 r10040"
   sodipodi:docname="plantest.svg">
  <defs
     id="defs4" />
  <sodipodi:namedview
     id="base"
     pagecolor="#ffffff"
     bordercolor="#666666"
     borderopacity="1.0"
     inkscape:pageopacity="0.0"
     inkscape:pageshadow="2"
     inkscape:zoom="1.1490476"
     inkscape:cx="373.01077"
     inkscape:cy="372.04724"
     inkscape:document-units="px"
     inkscape:current-layer="layer1"
     showgrid="false"
     inkscape:window-width="1920"
     inkscape:window-height="1025"
     inkscape:window-x="0"
     inkscape:window-y="27"
     inkscape:window-maximized="1" />
  <metadata
     id="metadata7">
    <rdf:RDF>
      <cc:Work
         rdf:about="">
        <dc:format>image/svg+xml</dc:format>
        <dc:type
           rdf:resource="http://purl.org/dc/dcmitype/StillImage" />
        <dc:title></dc:title>
      </cc:Work>
    </rdf:RDF>
  </metadata>
  <g
     inkscape:label="Layer 1"
     inkscape:groupmode="layer"
     id="layer1"
     transform="translate(0,-308.2677)">
    <path
       style="fill:#b8ba8a;fill-opacity:0.5022831;stroke:#4f5137;stroke-width:5;stroke-linecap:butt;stroke-linejoin:miter;stroke-miterlimit:4;stroke-opacity:1;stroke-dasharray:none"
       d="m 880.72937,600.68378 c 92.82609,89.94627 108.87319,196.62211 7.83258,301.11894 C 787.5213,1006.2995 461.94508,954.45603 317.65437,906.15415 173.36366,857.85227 53.251545,833.15535 46.125155,698.15581 38.998765,563.15627 277.61835,334.07799 386.40696,375.27972 c 108.78861,41.20173 -66.62218,149.08611 20.01657,228.01492 86.63875,78.92881 381.47973,-92.55713 474.30584,-2.61086 z"
       id="veldenduin"
       inkscape:connector-curvature="0"
       sodipodi:nodetypes="zzzzzzz" />
    <path
       sodipodi:type="star"
       style="fill:#8fb742;fill-opacity:1;stroke:#8b9448;stroke-width:5;stroke-miterlimit:4;stroke-opacity:1;stroke-dasharray:none"
       id="B01"
       sodipodi:sides="5"
       sodipodi:cx="207.12805"
       sodipodi:cy="241.06921"
       sodipodi:r1="23.384634"
       sodipodi:r2="11.692317"
       sodipodi:arg1="0.78539816"
       sodipodi:arg2="1.4137167"
       inkscape:flatsided="false"
       inkscape:rounded="0.1"
       inkscape:randomized="0.01"
       d="m 223.48666,257.62444 c -1.11373,1.08131 -13.05321,-5.01915 -14.5854,-4.80007 -1.5322,0.21907 -11.18624,9.59138 -12.5648,8.88071 -1.37855,-0.71066 1.07821,-13.74821 0.36113,-15.12018 -0.71708,-1.37197 -12.95014,-7.87495 -12.69019,-9.40701 0.25996,-1.53206 13.6453,-3.09614 14.74243,-4.20007 1.09713,-1.10392 3.12175,-14.76655 4.65423,-14.98816 1.53249,-0.22161 7.70108,11.79751 9.08175,12.51018 1.38067,0.71266 14.58319,-1.41359 15.29171,-0.039 0.70853,1.3746 -8.81869,10.80494 -9.04185,12.3344 -0.22317,1.52945 5.86472,13.74787 4.75099,14.82919 z"
       transform="translate(-28.719436,328.28428)"
       inkscape:transform-center-x="1.2188128"
       inkscape:transform-center-y="-1.2041289" />
    <path
       inkscape:transform-center-y="-1.2041289"
       inkscape:transform-center-x="1.2188128"
       transform="translate(87.898884,574.5752)"
       d="m 223.48666,257.62444 c -1.11373,1.08131 -13.05321,-5.01915 -14.5854,-4.80007 -1.5322,0.21907 -11.18624,9.59138 -12.5648,8.88071 -1.37855,-0.71066 1.07821,-13.74821 0.36113,-15.12018 -0.71708,-1.37197 -12.95014,-7.87495 -12.69019,-9.40701 0.25996,-1.53206 13.6453,-3.09614 14.74243,-4.20007 1.09713,-1.10392 3.12175,-14.76655 4.65423,-14.98816 1.53249,-0.22161 7.70108,11.79751 9.08175,12.51018 1.38067,0.71266 14.58319,-1.41359 15.29171,-0.039 0.70853,1.3746 -8.81869,10.80494 -9.04185,12.3344 -0.22317,1.52945 5.86472,13.74787 4.75099,14.82919 z"
       inkscape:randomized="0.01"
       inkscape:rounded="0.1"
       inkscape:flatsided="false"
       sodipodi:arg2="1.4137167"
       sodipodi:arg1="0.78539816"
       sodipodi:r2="11.692317"
       sodipodi:r1="23.384634"
       sodipodi:cy="241.06921"
       sodipodi:cx="207.12805"
       sodipodi:sides="5"
       id="B03"
       style="fill:#8fb742;fill-opacity:1;stroke:#8b9448;stroke-width:5;stroke-miterlimit:4;stroke-opacity:1;stroke-dasharray:none"
       sodipodi:type="star" />
    <path
       sodipodi:type="star"
       style="fill:#8fb742;fill-opacity:1;stroke:#8b9448;stroke-width:5;stroke-miterlimit:4;stroke-opacity:1;stroke-dasharray:none"
       id="C07"
       sodipodi:sides="5"
       sodipodi:cx="207.12805"
       sodipodi:cy="241.06921"
       sodipodi:r1="23.384634"
       sodipodi:r2="11.692317"
       sodipodi:arg1="0.78539816"
       sodipodi:arg2="1.4137167"
       inkscape:flatsided="false"
       inkscape:rounded="0.1"
       inkscape:randomized="0.01"
       d="m 223.48666,257.62444 c -1.11373,1.08131 -13.05321,-5.01915 -14.5854,-4.80007 -1.5322,0.21907 -11.18624,9.59138 -12.5648,8.88071 -1.37855,-0.71066 1.07821,-13.74821 0.36113,-15.12018 -0.71708,-1.37197 -12.95014,-7.87495 -12.69019,-9.40701 0.25996,-1.53206 13.6453,-3.09614 14.74243,-4.20007 1.09713,-1.10392 3.12175,-14.76655 4.65423,-14.98816 1.53249,-0.22161 7.70108,11.79751 9.08175,12.51018 1.38067,0.71266 14.58319,-1.41359 15.29171,-0.039 0.70853,1.3746 -8.81869,10.80494 -9.04185,12.3344 -0.22317,1.52945 5.86472,13.74787 4.75099,14.82919 z"
       transform="translate(531.74471,556.2992)"
       inkscape:transform-center-x="1.2188128"
       inkscape:transform-center-y="-1.2041289" />
  </g>
</svg>
