<svg id="Layer_1" data-name="Layer 1" xmlns="http://www.w3.org/2000/svg" viewBox="0 0 283.46 283.46"><defs><style>.cls-1{fill:#92c841;}</style></defs><title>19.108_V&amp;amp;D_Iconen-Site_01</title><polygon class="cls-1" points="124 134.22 102.41 134.22 99.38 163.03 122.14 163.03 124 134.22"/><polygon class="cls-1" points="190.65 134.22 169.9 134.22 171.72 163.03 193.68 163.03 190.65 134.22"/><polygon class="cls-1" points="126.64 167.84 124.78 196.65 169.03 196.65 167.21 167.84 126.64 167.84"/><path class="cls-1" d="M152.49,155.62a7.22,7.22,0,0,1-11.06,0c-2-2.35-7.44-9.1-12.89-17.18L127,163h40l-1.55-24.56c-5.44,8.07-10.91,14.8-12.87,17.15"/><path class="cls-1" d="M121.83,167.84h-23L96.12,194a2.39,2.39,0,0,0,2.39,2.65H120Z"/><path class="cls-1" d="M178.6,108.23c0,6-3.31,13.68-7.6,21.19h19.14l-2.8-26.67A2.41,2.41,0,0,0,185,100.6h-7.32a31.52,31.52,0,0,1,1,7.63"/><path class="cls-1" d="M172,167.84l1.82,28.81h20.71a2.44,2.44,0,0,0,1.79-.79,2.39,2.39,0,0,0,.6-1.86l-2.75-26.16Z"/><path class="cls-1" d="M122.92,129.42c-4.29-7.51-7.61-15.22-7.61-21.19a31.52,31.52,0,0,1,1-7.63h-8.17a2.41,2.41,0,0,0-2.39,2.16l-2.8,26.66Z"/><path class="cls-1" d="M147,119.8a11.57,11.57,0,1,1,11.57-11.57A11.57,11.57,0,0,1,147,119.8m0-38.41a26.87,26.87,0,0,0-26.84,26.84c0,14.21,24,43.09,25,44.31a2.41,2.41,0,0,0,3.69,0c1-1.22,25-30.1,25-44.31A26.87,26.87,0,0,0,147,81.39"/></svg>