<?xml version="1.0" encoding="utf-8"?>
<!-- Generator: Adobe Illustrator 18.0.0, SVG Export Plug-In . SVG Version: 6.00 Build 0)  -->
<!DOCTYPE svg PUBLIC "-//W3C//DTD SVG 1.1//EN" "http://www.w3.org/Graphics/SVG/1.1/DTD/svg11.dtd">
<svg version="1.1" id="Laag_1" xmlns="http://www.w3.org/2000/svg" xmlns:xlink="http://www.w3.org/1999/xlink" x="0px" y="0px"
	 viewBox="0 0 180 180" enable-background="new 0 0 180 180" xml:space="preserve">
<g>
	<circle fill="#6F705C" cx="60.2" cy="56.3" r="17"/>
	<circle fill="#6F705C" cx="105.3" cy="74.1" r="17"/>
	<path fill="#6F705C" d="M92,137.8c1,12.5,0.8,19.4,0.4,23.1c-19.3,2.3-35.9,0.7-47.2-3.4c0.9-2.9,2.3-8.3,3.2-15
		c1.9-15,1.1-37-14.2-55.8c-24.1-29.5-19.9-63.2-4.1-60.7c13.7,2.2-16.6,54.5,30.6,52.5c40.8-1.8,32.8-69.3,52.1-58.9
		C135.6,32,81.1,58,88.3,106.8C90.2,119.8,91.4,129.9,92,137.8z"/>
	<path fill="#6F705C" d="M130.8,126.8c1.2,8.7,3.3,17.3,5,23.6c-5.4,1.9-11.5,3.9-18.5,5.7c-7.1,1.9-13.9,3.3-20.5,4.2
		c1.7-8.6,0.2-16.4,0.4-23.7c1.1-38.7-39.6-52.1-22-62.3c11.8-6.8,8.8,23.3,30.8,23.3c30.9,0,21.1-59.3,42.9-50.8
		c13.8,5.4-16.2,31.2-18.8,61.1c-0.1,1-0.1,2-0.2,3c0,0.9,0,1.8,0,2.8C129.8,118,130.2,122.4,130.8,126.8z"/>
	<path opacity="0.3" fill="#6F705C" d="M35.6,128.6c0,0-14.4,28.3,71.8,5.5c68-18,15.8-21.1,15.8-21.1s38.3-13.6,46,2.2
		c5.8,12-2.6,27.8-51.7,40.9C57.1,172.2,11.4,152.8,35.6,128.6z"/>
	<path opacity="0.3" fill="#6F705C" d="M60.2,39.3c-5.7,0-10.7,2.8-13.8,7.1c5.3,6.5,14.2,13.8,29.2,17c1-2.2,1.6-4.6,1.6-7.1
		C77.2,46.9,69.6,39.3,60.2,39.3z"/>
	<path fill="#6F705C" d="M105.3,57.2c-9.4,0-17,7.6-17,17c0,0.1,0,0.2,0,0.3c5.3,1.1,11,1.6,17,1.6c5.9,0,11.6-0.6,17-1.6
		c0-0.1,0-0.2,0-0.3C122.3,64.8,114.7,57.2,105.3,57.2z"/>
	<path opacity="0.3" fill="#6F705C" d="M112.8,19.7C93.4,9.2,101.5,76.8,60.7,78.6c-47.2,2-17-50.3-30.6-52.5
		c-15.8-2.5-19.9,31.2,4.1,60.7c6.5,8,10.4,16.6,12.6,25c12.3,11.5,27.3,21.7,45.4,28.3c-0.1-0.7-0.1-1.5-0.2-2.3
		c-0.6-7.9-1.8-18.1-3.7-31C81.1,58,135.6,32,112.8,19.7z"/>
	<path fill="#6F705C" d="M148.9,46.9c-21.8-8.5-12.1,50.8-42.9,50.8c-21.9,0-19-30.1-30.8-23.3c-15.3,8.8,13.3,20.1,20.5,48.2
		c16.5-11.8,30.6-25.8,42.1-39.7C146.6,64.6,158.6,50.7,148.9,46.9z"/>
	<path opacity="0.3" fill="#6F705C" d="M155,107.7c-4.3,14.5-20.8,36.9-78.1,54.3c12.1-0.2,25.9-2,40.5-5.9
		c49.1-13.1,57.5-28.9,51.7-40.9C166.7,110.3,161.3,108.2,155,107.7z"/>
</g>
</svg>
