<?xml version="1.0" encoding="UTF-8" standalone="no"?>
<svg
   xmlns:dc="http://purl.org/dc/elements/1.1/"
   xmlns:cc="http://creativecommons.org/ns#"
   xmlns:rdf="http://www.w3.org/1999/02/22-rdf-syntax-ns#"
   xmlns:svg="http://www.w3.org/2000/svg"
   xmlns="http://www.w3.org/2000/svg"
   xmlns:sodipodi="http://sodipodi.sourceforge.net/DTD/sodipodi-0.dtd"
   xmlns:inkscape="http://www.inkscape.org/namespaces/inkscape"
   id="Layer_1"
   data-name="Layer 1"
   viewBox="0 0 180.00001 180.00001"
   version="1.1"
   sodipodi:docname="animatie.svg"
   width="180"
   height="180"
   inkscape:version="0.92.4 (5da689c313, 2019-01-14)">
  <metadata
     id="metadata21">
    <rdf:RDF>
      <cc:Work
         rdf:about="">
        <dc:format>image/svg+xml</dc:format>
        <dc:type
           rdf:resource="http://purl.org/dc/dcmitype/StillImage" />
        <dc:title>19.108_V&amp;amp;D_Iconen-Site_01</dc:title>
      </cc:Work>
    </rdf:RDF>
  </metadata>
  <sodipodi:namedview
     pagecolor="#ffffff"
     bordercolor="#666666"
     borderopacity="1"
     objecttolerance="10"
     gridtolerance="10"
     guidetolerance="10"
     inkscape:pageopacity="0"
     inkscape:pageshadow="2"
     inkscape:window-width="1920"
     inkscape:window-height="1016"
     id="namedview19"
     showgrid="false"
     inkscape:pagecheckerboard="true"
     inkscape:zoom="4.6444444"
     inkscape:cx="90"
     inkscape:cy="90"
     inkscape:window-x="0"
     inkscape:window-y="27"
     inkscape:window-maximized="1"
     inkscape:current-layer="Layer_1" />
  <defs
     id="defs4">
    <style
       id="style2">.cls-1{fill:#ed7f2b;}</style>
  </defs>
  <title
     id="title6">19.108_V&amp;amp;D_Iconen-Site_01</title>
  <path
     class="cls-1"
     d="m 165.6291,151.51068 a 27.90726,27.90726 0 0 0 -16.79322,-24.62495 18.625196,18.625196 0 1 0 -22.3655,0 28.075192,28.075192 0 0 0 -15.26654,16.79321 34.319212,34.319212 0 0 1 10.21332,11.90791 h 41.21969 a 3.0533107,3.0533107 0 0 0 3.05331,-3.05331 3.0533107,3.0533107 0 0 0 -0.1374,-0.916"
     id="path8"
     inkscape:connector-curvature="0"
     style="fill:#ed7f2b;stroke-width:1.52665532" />
  <path
     class="cls-1"
     d="m 71.068074,143.54154 a 28.136258,28.136258 0 0 0 -15.266554,-16.62528 18.625196,18.625196 0 1 0 -22.365501,0 27.937792,27.937792 0 0 0 -16.793209,25.55621 3.0533107,3.0533107 0 0 0 3.053311,3.05331 h 41.097562 a 34.380278,34.380278 0 0 1 10.274391,-12.01477"
     id="path10"
     inkscape:connector-curvature="0"
     style="fill:#ed7f2b;stroke-width:1.52665532" />
  <path
     class="cls-1"
     d="m 119.11191,170.12061 a 27.953059,27.953059 0 0 0 -16.79321,-24.62495 18.625196,18.625196 0 1 0 -22.365493,0 27.937792,27.937792 0 0 0 -16.793208,25.5562 3.0533107,3.0533107 0 0 0 3.053311,3.05331 h 49.84529 a 3.0533107,3.0533107 0 0 0 2.96171,-4.03036"
     id="path12"
     inkscape:connector-curvature="0"
     style="fill:#ed7f2b;stroke-width:1.52665532" />
  <path
     class="cls-1"
     d="m 30.459041,9.1958631 1.526656,0.4732629 3.05331,20.945711 a 1.5266554,1.5266554 0 0 0 1.083926,1.267125 1.5266554,1.5266554 0 0 0 0.442729,0 1.5266554,1.5266554 0 0 0 1.160258,-0.519064 l 14.213161,-15.877215 3.847172,1.114458 2.931179,21.006777 a 1.5266554,1.5266554 0 0 0 1.526655,1.343457 1.5266554,1.5266554 0 0 0 1.160258,-0.519062 l 14.39636,-16.045148 3.725039,1.083925 2.946445,21.006778 a 1.5266554,1.5266554 0 0 0 1.083925,1.267123 1.5266554,1.5266554 0 0 0 1.526655,-0.442729 l 14.411626,-16.045148 2.045715,0.580129 a 1.4045229,1.4045229 0 0 0 0.42746,0 1.541544,1.541544 0 0 0 0.42746,-3.053311 L 31.313968,6.2799514 a 1.5266554,1.5266554 0 0 0 -1.923586,1.0686583 1.5266554,1.5266554 0 0 0 1.068659,1.9083196"
     id="path14"
     inkscape:connector-curvature="0"
     style="fill:#ed7f2b;stroke-width:1.52665532" />
  <path
     class="cls-1"
     d="M 159.17134,45.835591 65.877445,56.33898 64.503456,56.461112 v 0 L 62.9768,56.644311 a 2.0946496,2.0946496 0 0 0 0.228998,4.183035 h 0.244265 0.274798 l 14.335294,24.701288 a 2.1220509,2.1220509 0 0 0 1.81672,1.038125 h 0.198464 a 2.0915178,2.0915178 0 0 0 1.770921,-1.37399 l 9.78586,-27.540865 6.411948,-0.717529 14.564292,24.945552 a 2.1220509,2.1220509 0 0 0 1.81672,1.038126 h 0.19846 a 2.0609847,2.0609847 0 0 0 1.77092,-1.389256 l 9.87745,-27.769864 4.57998,-0.503797 14.42689,24.640218 a 2.0762512,2.0762512 0 0 0 1.81672,1.038125 h 0.1832 a 2.1067843,2.1067843 0 0 0 1.78618,-1.389257 l 9.7706,-27.479796 0.80913,-0.0916 a 2.1220509,2.1220509 0 0 0 1.86252,-2.320516 2.1525841,2.1525841 0 0 0 -2.33579,-1.862519"
     id="path16"
     inkscape:connector-curvature="0"
     style="fill:#ed7f2b;stroke-width:1.52665532" />
</svg>
