<?xml version="1.0" encoding="utf-8"?>
<!-- Generator: Adobe Illustrator 18.0.0, SVG Export Plug-In . SVG Version: 6.00 Build 0)  -->
<!DOCTYPE svg PUBLIC "-//W3C//DTD SVG 1.1//EN" "http://www.w3.org/Graphics/SVG/1.1/DTD/svg11.dtd">
<svg version="1.1" id="Laag_1" xmlns="http://www.w3.org/2000/svg" xmlns:xlink="http://www.w3.org/1999/xlink" x="0px" y="0px"
	 viewBox="0 0 180 180" enable-background="new 0 0 180 180" xml:space="preserve">
<polygon fill="#6E6F5B" points="89.3,19.2 159.6,61.2 159.6,81.8 89.3,40.2 19,81.8 19,61.2 "/>
<g>
	<circle fill="#6E6F5B" cx="53.2" cy="134.6" r="2.9"/>
	<circle fill="#6E6F5B" cx="125.1" cy="134.6" r="2.9"/>
	<path fill="#6E6F5B" d="M77.6,96.2H66.7c-0.8,0-1.4-0.6-1.4-1.4c0-0.8,0.6-1.4,1.4-1.4h10.9c0.8,0,1.4,0.6,1.4,1.4
		C79,95.6,78.3,96.2,77.6,96.2z"/>
	<path fill="#6E6F5B" d="M53.2,158c-12.9,0-23.4-10.5-23.4-23.4c0-12.9,10.5-23.4,23.4-23.4s23.4,10.5,23.4,23.4
		C76.6,147.5,66.1,158,53.2,158z M53.2,113.9c-11.4,0-20.7,9.3-20.7,20.7s9.3,20.7,20.7,20.7s20.7-9.3,20.7-20.7
		S64.6,113.9,53.2,113.9z"/>
	<path fill="#6E6F5B" d="M53.6,135.9c-0.2,0-0.5-0.1-0.7-0.2c-0.6-0.4-0.8-1.2-0.5-1.9l20.3-33.2c0.4-0.6,1.2-0.8,1.9-0.5
		c0.6,0.4,0.8,1.2,0.5,1.9l-20.3,33.2C54.5,135.7,54,135.9,53.6,135.9z"/>
	<path fill="#6E6F5B" d="M83.7,135.9H53.6c-0.8,0-1.4-0.6-1.4-1.4c0-0.8,0.6-1.4,1.4-1.4h30.2c0.8,0,1.4,0.6,1.4,1.4
		C85.1,135.3,84.5,135.9,83.7,135.9z"/>
	<path fill="#6E6F5B" d="M83.7,135.9c-0.6,0-1.1-0.4-1.3-1L70.6,95.3c-0.2-0.7,0.2-1.5,0.9-1.7c0.7-0.2,1.5,0.2,1.7,0.9l11.8,39.7
		c0.2,0.7-0.2,1.5-0.9,1.7C84,135.9,83.9,135.9,83.7,135.9z"/>
	<path fill="#6E6F5B" d="M111.5,102.8H73.9c-0.8,0-1.4-0.6-1.4-1.4c0-0.8,0.6-1.4,1.4-1.4h37.6c0.8,0,1.4,0.6,1.4,1.4
		C112.8,102.1,112.2,102.8,111.5,102.8z"/>
	<path fill="#6E6F5B" d="M83.7,135.9c-0.3,0-0.7-0.1-1-0.4c-0.5-0.5-0.6-1.4,0-1.9l28.8-29.7c0.5-0.5,1.4-0.6,1.9,0
		c0.5,0.5,0.6,1.4,0,1.9l-28.8,29.7C84.5,135.8,84.1,135.9,83.7,135.9z"/>
	<path fill="#6E6F5B" d="M125.1,135.9c-0.5,0-1-0.3-1.3-0.8l-13.6-33.2c-0.3-0.7,0-1.5,0.7-1.8c0.7-0.3,1.5,0,1.8,0.7l13.6,33.2
		c0.3,0.7,0,1.5-0.7,1.8C125.4,135.9,125.3,135.9,125.1,135.9z"/>
	<path fill="#6E6F5B" d="M111.5,102.8c-0.5,0-1-0.3-1.3-0.8l-1.6-3.9c-0.3-0.7,0-1.5,0.7-1.8c0.7-0.3,1.5,0,1.8,0.7l1.6,3.9
		c0.3,0.7,0,1.5-0.7,1.8C111.8,102.7,111.6,102.8,111.5,102.8z"/>
	<path fill="#6E6F5B" d="M116.7,98.8h-6.8c-0.8,0-1.4-0.6-1.4-1.4c0-0.8,0.6-1.4,1.4-1.4h6.8c0.8,0,1.4,0.6,1.4,1.4
		C118,98.2,117.4,98.8,116.7,98.8z"/>
	<path fill="#6E6F5B" d="M125.1,158c-12.9,0-23.4-10.5-23.4-23.4c0-12.9,10.5-23.4,23.4-23.4c12.9,0,23.4,10.5,23.4,23.4
		C148.5,147.5,138,158,125.1,158z M125.1,113.9c-11.4,0-20.7,9.3-20.7,20.7s9.3,20.7,20.7,20.7c11.4,0,20.7-9.3,20.7-20.7
		S136.5,113.9,125.1,113.9z"/>
	<circle fill="#6E6F5B" cx="83.7" cy="134.6" r="5.6"/>
	<path fill="#6E6F5B" d="M83.7,135.3c-0.1,0-0.1,0-0.2,0c-0.4-0.1-0.6-0.5-0.5-0.9l2.5-9.3c0.1-0.4,0.5-0.6,0.9-0.5
		c0.4,0.1,0.6,0.5,0.5,0.9l-2.5,9.3C84.3,135.1,84,135.3,83.7,135.3z"/>
	<path fill="#6E6F5B" d="M81.1,144.6c-0.1,0-0.1,0-0.2,0c-0.4-0.1-0.6-0.5-0.5-0.9l2.5-9.3c0.1-0.4,0.5-0.6,0.9-0.5
		c0.4,0.1,0.6,0.5,0.5,0.9l-2.5,9.3C81.8,144.4,81.5,144.6,81.1,144.6z"/>
	<path fill="#6E6F5B" d="M83.1,144.6H79c-0.4,0-0.7-0.3-0.7-0.7c0-0.4,0.3-0.7,0.7-0.7h4.2c0.4,0,0.7,0.3,0.7,0.7
		C83.9,144.3,83.5,144.6,83.1,144.6z"/>
	<path fill="#6E6F5B" d="M88.2,126h-4.2c-0.4,0-0.7-0.3-0.7-0.7s0.3-0.7,0.7-0.7h4.2c0.4,0,0.7,0.3,0.7,0.7S88.6,126,88.2,126z"/>
</g>
</svg>
