<?xml version="1.0" encoding="UTF-8" standalone="no"?>
<svg
   xmlns:dc="http://purl.org/dc/elements/1.1/"
   xmlns:cc="http://creativecommons.org/ns#"
   xmlns:rdf="http://www.w3.org/1999/02/22-rdf-syntax-ns#"
   xmlns:svg="http://www.w3.org/2000/svg"
   xmlns="http://www.w3.org/2000/svg"
   xmlns:sodipodi="http://sodipodi.sourceforge.net/DTD/sodipodi-0.dtd"
   xmlns:inkscape="http://www.inkscape.org/namespaces/inkscape"
   id="Layer_1"
   data-name="Layer 1"
   viewBox="0 0 180.00001 180.00001"
   version="1.1"
   sodipodi:docname="fietsberging.svg"
   width="180"
   height="180"
   inkscape:version="0.92.4 (5da689c313, 2019-01-14)">
  <metadata
     id="metadata38">
    <rdf:RDF>
      <cc:Work
         rdf:about="">
        <dc:format>image/svg+xml</dc:format>
        <dc:type
           rdf:resource="http://purl.org/dc/dcmitype/StillImage" />
        <dc:title>19.108_V&amp;amp;D_Iconen-Site_01</dc:title>
      </cc:Work>
    </rdf:RDF>
  </metadata>
  <sodipodi:namedview
     pagecolor="#ffffff"
     bordercolor="#666666"
     borderopacity="1"
     objecttolerance="10"
     gridtolerance="10"
     guidetolerance="10"
     inkscape:pageopacity="0"
     inkscape:pageshadow="2"
     inkscape:window-width="1920"
     inkscape:window-height="1016"
     id="namedview36"
     showgrid="false"
     inkscape:pagecheckerboard="true"
     inkscape:zoom="4.6444444"
     inkscape:cx="90"
     inkscape:cy="81.38756"
     inkscape:window-x="0"
     inkscape:window-y="27"
     inkscape:window-maximized="1"
     inkscape:current-layer="Layer_1" />
  <defs
     id="defs25">
    <style
       id="style23">.cls-1{fill:#ed7f2b;}</style>
  </defs>
  <title
     id="title27">19.108_V&amp;amp;D_Iconen-Site_01</title>
  <path
     class="cls-1"
     d="m 141.66036,130.19253 a 6.8413544,6.8413544 0 1 0 6.82859,6.84136 6.8413544,6.8413544 0 0 0 -6.82859,-6.84136"
     id="path29"
     inkscape:connector-curvature="0"
     style="fill:#ed7f2b;stroke-width:1.27637208" />
  <path
     class="cls-1"
     d="m 141.66036,157.54518 a 20.5113,20.5113 0 1 1 20.53683,-20.51129 20.536827,20.536827 0 0 1 -20.5113,20.51129 M 84.453365,130.11595 74.242388,104.95865 113.10792,91.582275 Z M 69.68574,133.61321 A 30.492529,30.492529 0 0 0 62.027507,116.6247 l 6.535025,-7.27533 9.853593,24.25107 z M 39.129392,157.54518 A 20.5113,20.5113 0 1 1 59.640691,137.03389 20.536827,20.536827 0 0 1 39.129392,157.54518 M 141.68589,106.26055 a 31.117952,31.117952 0 0 0 -7.36467,0.91899 l -12.04895,-32.71342 9.98123,-2.552744 a 3.4206772,3.4206772 0 1 0 -1.65928,-6.624371 l -13.66995,3.420677 a 3.4206772,3.4206772 0 0 0 -2.38681,4.49283 l 3.47173,9.406867 L 71.57477,98.61509 66.341645,85.749254 h 6.892409 a 3.4206776,3.4206776 0 1 0 0,-6.841354 H 52.773809 a 3.4206775,3.4206775 0 0 0 0,6.841354 h 6.24146 l 6.739244,16.592836 -8.768676,9.73872 a 30.747804,30.747804 0 1 0 12.674375,28.39928 h 13.874165 a 3.4589684,3.4589684 0 0 0 2.756964,-1.37848 l 35.087469,-47.22577 6.5095,17.67775 a 30.722276,30.722276 0 1 0 13.77205,-3.28027"
     id="path31"
     inkscape:connector-curvature="0"
     style="fill:#ed7f2b;stroke-width:1.27637208" />
  <path
     class="cls-1"
     d="m 39.103864,130.19253 a 6.8413544,6.8413544 0 1 0 6.828591,6.84136 6.8413544,6.8413544 0 0 0 -6.828591,-6.84136"
     id="path33"
     inkscape:connector-curvature="0"
     style="fill:#ed7f2b;stroke-width:1.27637208" />
</svg>
