<?xml version="1.0" encoding="UTF-8" standalone="no"?>
<svg
   xmlns:dc="http://purl.org/dc/elements/1.1/"
   xmlns:cc="http://creativecommons.org/ns#"
   xmlns:rdf="http://www.w3.org/1999/02/22-rdf-syntax-ns#"
   xmlns:svg="http://www.w3.org/2000/svg"
   xmlns="http://www.w3.org/2000/svg"
   xmlns:sodipodi="http://sodipodi.sourceforge.net/DTD/sodipodi-0.dtd"
   xmlns:inkscape="http://www.inkscape.org/namespaces/inkscape"
   width="180"
   height="180"
   viewBox="0 0 92.16 92.16"
   version="1.1"
   id="svg899"
   sodipodi:docname="hotspots-new.svg"
   inkscape:version="0.92.5 (2060ec1f9f, 2020-04-08)">
  <metadata
     id="metadata905">
    <rdf:RDF>
      <cc:Work
         rdf:about="">
        <dc:format>image/svg+xml</dc:format>
        <dc:type
           rdf:resource="http://purl.org/dc/dcmitype/StillImage" />
        <dc:title>VIEWg</dc:title>
      </cc:Work>
    </rdf:RDF>
  </metadata>
  <defs
     id="defs903" />
  <sodipodi:namedview
     pagecolor="#ffffff"
     bordercolor="#666666"
     borderopacity="1"
     objecttolerance="10"
     gridtolerance="10"
     guidetolerance="10"
     inkscape:pageopacity="0"
     inkscape:pageshadow="2"
     inkscape:window-width="1920"
     inkscape:window-height="1043"
     id="namedview901"
     showgrid="false"
     inkscape:pagecheckerboard="true"
     inkscape:zoom="2.4472222"
     inkscape:cx="208.69609"
     inkscape:cy="71.209859"
     inkscape:window-x="1920"
     inkscape:window-y="0"
     inkscape:window-maximized="1"
     inkscape:current-layer="svg899"
     inkscape:snap-grids="true"
     showguides="false"
     inkscape:guide-bbox="true"
     inkscape:lockguides="false"
     inkscape:snap-to-guides="true">
    <sodipodi:guide
       position="46.08,67.367809"
       orientation="1,0"
       id="guide4565"
       inkscape:locked="false"
       inkscape:label=""
       inkscape:color="rgb(0,0,255)" />
    <sodipodi:guide
       position="35.357639,23.04"
       orientation="0,1"
       id="guide4567"
       inkscape:locked="false"
       inkscape:label=""
       inkscape:color="rgb(0,0,255)" />
    <sodipodi:guide
       position="46.08,23.04"
       orientation="-0.34202014,0.93969262"
       id="guide4569"
       inkscape:locked="false"
       inkscape:label=""
       inkscape:color="rgb(0,0,255)" />
    <sodipodi:guide
       position="46.08,23.04"
       orientation="-0.5,0.8660254"
       id="guide4571"
       inkscape:locked="false"
       inkscape:label=""
       inkscape:color="rgb(0,0,255)" />
    <sodipodi:guide
       position="46.08,23.04"
       orientation="-0.64278761,0.76604444"
       id="guide4573"
       inkscape:locked="false"
       inkscape:label=""
       inkscape:color="rgb(0,0,255)" />
    <sodipodi:guide
       position="46.08,23.04"
       orientation="-0.98480775,0.17364818"
       id="guide4575"
       inkscape:locked="false"
       inkscape:label=""
       inkscape:color="rgb(0,0,255)" />
    <sodipodi:guide
       position="46.08,23.04"
       orientation="-0.8660254,0.5"
       id="guide4577"
       inkscape:locked="false"
       inkscape:label=""
       inkscape:color="rgb(0,0,255)" />
    <sodipodi:guide
       position="46.08,23.04"
       orientation="-0.93969262,0.34202014"
       id="guide4579"
       inkscape:locked="false"
       inkscape:label=""
       inkscape:color="rgb(0,0,255)" />
    <sodipodi:guide
       position="46.08,23.04"
       orientation="-0.76604444,0.64278761"
       id="guide4581"
       inkscape:locked="false"
       inkscape:label=""
       inkscape:color="rgb(0,0,255)" />
    <sodipodi:guide
       position="46.08,23.04"
       orientation="-0.98480775,-0.17364818"
       id="guide4583"
       inkscape:locked="false"
       inkscape:label=""
       inkscape:color="rgb(0,0,255)" />
    <sodipodi:guide
       position="46.08,35.84"
       orientation="0,1"
       id="guide4663"
       inkscape:locked="false"
       inkscape:label=""
       inkscape:color="rgb(0,0,255)" />
    <sodipodi:guide
       position="52.618025,34.076186"
       orientation="0.5,0.8660254"
       id="guide4665"
       inkscape:locked="false"
       inkscape:label=""
       inkscape:color="rgb(0,0,255)" />
    <sodipodi:guide
       position="57.220795,29.316504"
       orientation="0.8660254,0.5"
       id="guide4667"
       inkscape:locked="false"
       inkscape:label=""
       inkscape:color="rgb(0,0,255)" />
    <sodipodi:guide
       position="46.08,71.68"
       orientation="0,1"
       id="guide4669"
       inkscape:locked="false"
       inkscape:label=""
       inkscape:color="rgb(0,0,255)" />
    <sodipodi:guide
       position="48.080051,61.44"
       orientation="0,1"
       id="guide4671"
       inkscape:locked="false"
       inkscape:label=""
       inkscape:color="rgb(0,0,255)" />
    <sodipodi:guide
       position="53.849657,46.08"
       orientation="0,1"
       id="guide4673"
       inkscape:locked="false"
       inkscape:label=""
       inkscape:color="rgb(0,0,255)" />
    <sodipodi:guide
       position="46.08,23.04"
       orientation="-0.9945219,-0.10452846"
       id="guide4677"
       inkscape:locked="false"
       inkscape:label=""
       inkscape:color="rgb(0,0,255)" />
    <sodipodi:guide
       position="46.08,23.04"
       orientation="-0.9945219,0.10452846"
       id="guide4679"
       inkscape:locked="false"
       inkscape:label=""
       inkscape:color="rgb(0,0,255)" />
    <sodipodi:guide
       position="56.216675,53.76"
       orientation="0,1"
       id="guide4685"
       inkscape:locked="false"
       inkscape:label=""
       inkscape:color="rgb(0,0,255)" />
  </sodipodi:namedview>
  <title
     id="title891">VIEWg</title>
  <path
     style="opacity:1;fill:#4f5137;fill-opacity:1;stroke:none;stroke-width:1;stroke-linecap:round;stroke-linejoin:round;stroke-miterlimit:4;stroke-dasharray:none;stroke-opacity:1"
     d="M 90 22.5 C 84.744788 22.5 79.48958 35 82.117188 60 C 87.3724 110 87.373047 110 87.373047 110 L 87.529297 110 L 92.626953 110 L 92.783203 110 C 92.783203 110 92.783852 110 98.039062 60 C 100.66667 35 95.411463 22.5 90.15625 22.5 C 90.130183 22.5 90.104191 22.505244 90.078125 22.505859 C 90.052059 22.505244 90.026067 22.5 90 22.5 z M 42.533203 50.232422 C 37.079383 50.421139 38.41343 63.957764 54.574219 86.201172 L 75.259766 114.67188 L 79.8125 112.04492 L 65.498047 79.894531 C 56.232156 59.08301 47.052082 50.076055 42.533203 50.232422 z M 137.62305 50.232422 C 133.10417 50.076056 123.92409 59.083009 114.6582 79.894531 L 100.34375 112.04492 L 104.89648 114.67188 L 125.58203 86.201172 C 141.74282 63.957763 143.07687 50.421139 137.62305 50.232422 z M 22.296875 92.275391 C 13.478234 91.924725 20.343279 103.47337 49.048828 116.25391 L 67.419922 124.43164 L 70.048828 119.88086 L 53.779297 108.06055 C 38.526666 96.978861 27.588064 92.485791 22.296875 92.275391 z M 157.85938 92.275391 C 152.56818 92.485791 141.62958 96.978862 126.37695 108.06055 L 110.10742 119.88086 L 112.73633 124.43164 L 131.10742 116.25391 C 159.81297 103.47337 166.67802 91.924724 157.85938 92.275391 z M 90.078125 119.85352 A 15 15 0 0 0 88.804688 119.91602 A 15 15 0 0 0 88.027344 120.01172 A 15 15 0 0 0 87.328125 120.11719 A 15 15 0 0 0 86.558594 120.28906 A 15 15 0 0 0 85.867188 120.4668 A 15 15 0 0 0 85.126953 120.71289 A 15 15 0 0 0 84.451172 120.95898 A 15 15 0 0 0 83.730469 121.28125 A 15 15 0 0 0 83.09375 121.58984 A 15 15 0 0 0 82.414062 121.97852 A 15 15 0 0 0 81.800781 122.35547 A 15 15 0 0 0 81.177734 122.80078 A 15 15 0 0 0 80.59375 123.24414 A 15 15 0 0 0 80.017578 123.75 A 15 15 0 0 0 79.478516 124.25391 A 15 15 0 0 0 78.974609 124.79297 A 15 15 0 0 0 78.46875 125.36914 A 15 15 0 0 0 78.025391 125.95312 A 15 15 0 0 0 77.580078 126.57617 A 15 15 0 0 0 77.203125 127.18945 A 15 15 0 0 0 76.814453 127.86914 A 15 15 0 0 0 76.505859 128.50586 A 15 15 0 0 0 76.183594 129.22656 A 15 15 0 0 0 75.9375 129.90234 A 15 15 0 0 0 75.691406 130.64258 A 15 15 0 0 0 75.513672 131.33398 A 15 15 0 0 0 75.341797 132.10352 A 15 15 0 0 0 75.236328 132.80273 A 15 15 0 0 0 75.140625 133.58008 A 15 15 0 0 0 75.078125 134.85352 A 15 15 0 0 0 75.140625 136.12695 A 15 15 0 0 0 75.236328 136.9043 A 15 15 0 0 0 75.341797 137.60352 A 15 15 0 0 0 75.513672 138.37305 A 15 15 0 0 0 75.691406 139.06445 A 15 15 0 0 0 75.9375 139.80469 A 15 15 0 0 0 76.183594 140.48047 A 15 15 0 0 0 76.505859 141.20117 A 15 15 0 0 0 76.814453 141.83789 A 15 15 0 0 0 77.203125 142.51758 A 15 15 0 0 0 77.580078 143.13086 A 15 15 0 0 0 78.025391 143.75391 A 15 15 0 0 0 78.46875 144.33789 A 15 15 0 0 0 78.974609 144.91406 A 15 15 0 0 0 79.478516 145.45312 A 15 15 0 0 0 80.017578 145.95703 A 15 15 0 0 0 80.59375 146.46289 A 15 15 0 0 0 81.177734 146.90625 A 15 15 0 0 0 81.800781 147.35156 A 15 15 0 0 0 82.414062 147.72852 A 15 15 0 0 0 83.09375 148.11719 A 15 15 0 0 0 83.730469 148.42578 A 15 15 0 0 0 84.451172 148.74805 A 15 15 0 0 0 85.126953 148.99414 A 15 15 0 0 0 85.867188 149.24023 A 15 15 0 0 0 86.558594 149.41797 A 15 15 0 0 0 87.328125 149.58984 A 15 15 0 0 0 88.027344 149.69531 A 15 15 0 0 0 88.804688 149.79102 A 15 15 0 0 0 90.078125 149.85352 A 15 15 0 0 0 91.351562 149.79102 A 15 15 0 0 0 92.128906 149.69531 A 15 15 0 0 0 92.828125 149.58984 A 15 15 0 0 0 93.597656 149.41797 A 15 15 0 0 0 94.289062 149.24023 A 15 15 0 0 0 95.029297 148.99414 A 15 15 0 0 0 95.705078 148.74805 A 15 15 0 0 0 96.425781 148.42578 A 15 15 0 0 0 97.0625 148.11719 A 15 15 0 0 0 97.742188 147.72852 A 15 15 0 0 0 98.355469 147.35156 A 15 15 0 0 0 98.978516 146.90625 A 15 15 0 0 0 99.5625 146.46289 A 15 15 0 0 0 100.13867 145.95703 A 15 15 0 0 0 100.67773 145.45312 A 15 15 0 0 0 101.18164 144.91406 A 15 15 0 0 0 101.6875 144.33789 A 15 15 0 0 0 102.13086 143.75391 A 15 15 0 0 0 102.57617 143.13086 A 15 15 0 0 0 102.95312 142.51758 A 15 15 0 0 0 103.3418 141.83789 A 15 15 0 0 0 103.65039 141.20117 A 15 15 0 0 0 103.97266 140.48047 A 15 15 0 0 0 104.21875 139.80469 A 15 15 0 0 0 104.46484 139.06445 A 15 15 0 0 0 104.64258 138.37305 A 15 15 0 0 0 104.81445 137.60352 A 15 15 0 0 0 104.91992 136.9043 A 15 15 0 0 0 105.01562 136.12695 A 15 15 0 0 0 105.07812 134.85352 A 15 15 0 0 0 105.01562 133.58008 A 15 15 0 0 0 104.91992 132.80273 A 15 15 0 0 0 104.81445 132.10352 A 15 15 0 0 0 104.64258 131.33398 A 15 15 0 0 0 104.46484 130.64258 A 15 15 0 0 0 104.21875 129.90234 A 15 15 0 0 0 103.97266 129.22656 A 15 15 0 0 0 103.65039 128.50586 A 15 15 0 0 0 103.3418 127.86914 A 15 15 0 0 0 102.95312 127.18945 A 15 15 0 0 0 102.57617 126.57617 A 15 15 0 0 0 102.13086 125.95312 A 15 15 0 0 0 101.6875 125.36914 A 15 15 0 0 0 101.18164 124.79297 A 15 15 0 0 0 100.67773 124.25391 A 15 15 0 0 0 100.13867 123.75 A 15 15 0 0 0 99.5625 123.24414 A 15 15 0 0 0 98.978516 122.80078 A 15 15 0 0 0 98.355469 122.35547 A 15 15 0 0 0 97.742188 121.97852 A 15 15 0 0 0 97.0625 121.58984 A 15 15 0 0 0 96.425781 121.28125 A 15 15 0 0 0 95.705078 120.95898 A 15 15 0 0 0 95.029297 120.71289 A 15 15 0 0 0 94.289062 120.4668 A 15 15 0 0 0 93.597656 120.28906 A 15 15 0 0 0 92.828125 120.11719 A 15 15 0 0 0 92.128906 120.01172 A 15 15 0 0 0 91.351562 119.91602 A 15 15 0 0 0 90.078125 119.85352 z "
     transform="scale(0.512)"
     id="path4585" />
</svg>
