<?xml version="1.0" encoding="utf-8"?>
<!-- Generator: Adobe Illustrator 18.0.0, SVG Export Plug-In . SVG Version: 6.00 Build 0)  -->
<!DOCTYPE svg PUBLIC "-//W3C//DTD SVG 1.1//EN" "http://www.w3.org/Graphics/SVG/1.1/DTD/svg11.dtd">
<svg version="1.1" id="Laag_1" xmlns="http://www.w3.org/2000/svg" xmlns:xlink="http://www.w3.org/1999/xlink" x="0px" y="0px"
	 viewBox="0 0 180 180" enable-background="new 0 0 180 180" xml:space="preserve">
<g>
	<g>
		<path fill="#6F705C" d="M88.9,6.3C43.8,6.3,7.2,42.8,7.2,87.9c0,45.1,36.6,81.7,81.7,81.7c45.1,0,81.7-36.6,81.7-81.7
			C170.5,42.8,134,6.3,88.9,6.3z M104.3,122.5l-2,8.6c-0.1,0.5-0.5,1-0.9,1.2c-0.4,0.2-0.7,0.3-0.7,0.3c-3.8,1.5-6.8,2.6-9.1,3.2
			c-2.5,0.6-4.5,1-6.3,1c-4,0-7.1-1.1-9.2-3.4c-2.1-2.2-3.2-4.9-3.2-8.1c0-1.1,0.1-2.2,0.3-3.3c0.2-1.1,0.4-2.4,0.8-4l6.3-25.4
			c0.3-1.3,0.6-2.8,0.9-4.3c0.3-1.4,0.4-2.6,0.4-3.5c0-0.6,0-1.1-0.1-1.5c-0.1-0.5-0.6-1.1-1.1-1.1c-0.4,0-0.9-0.1-1.5-0.1
			c-0.5,0-1.4,0.1-3,0.4c-1.4,0.3-2.4,0.5-3.1,0.7l-3.7,1c-0.5,0.1-0.8-0.2-0.7-0.7l1.9-8c0.1-0.5,0.5-1,0.9-1.2
			c0.4-0.2,0.6-0.3,0.6-0.3c3.2-1.4,6.2-2.5,8.8-3.3c2.7-0.8,4.9-1.1,6.6-1.1c4.1,0,7.1,1.1,9.2,3.2c2,2.1,3,4.9,3,8.2
			c0,0.8-0.1,1.9-0.3,3.3c-0.2,1.4-0.4,2.7-0.8,4.1l-6.3,25.4c-0.4,1.5-0.7,3-1,4.4c-0.3,1.3-0.4,2.4-0.4,3.1c0,1.7,0.4,2.4,0.5,2.5
			c0.2,0.1,0.9,0.6,3.1,0.6c0.4,0,1.3,0,2.8-0.3c1.5-0.2,2.3-0.4,2.7-0.6l4.1-1.5C104.1,121.7,104.4,122,104.3,122.5z M104.7,57.5
			c-2,2.3-4.6,3.5-7.6,3.5c-2.8,0-5.4-1.2-7.4-3.3c-2-2.1-3-4.6-3-7.4c0-2.9,1-5.5,2.9-7.6c2-2.2,4.5-3.4,7.4-3.4
			c3.1,0,5.6,1.1,7.6,3.2c1.9,2.1,2.9,4.5,2.9,7.3C107.6,52.7,106.6,55.3,104.7,57.5z"/>
	</g>
</g>
</svg>
