<?xml version="1.0" encoding="UTF-8" standalone="no"?>
<svg
   xmlns:dc="http://purl.org/dc/elements/1.1/"
   xmlns:cc="http://creativecommons.org/ns#"
   xmlns:rdf="http://www.w3.org/1999/02/22-rdf-syntax-ns#"
   xmlns:svg="http://www.w3.org/2000/svg"
   xmlns="http://www.w3.org/2000/svg"
   xmlns:sodipodi="http://sodipodi.sourceforge.net/DTD/sodipodi-0.dtd"
   xmlns:inkscape="http://www.inkscape.org/namespaces/inkscape"
   id="Layer_1"
   data-name="Layer 1"
   viewBox="0 0 180.00001 180.00001"
   version="1.1"
   sodipodi:docname="info.svg"
   width="180"
   height="180"
   inkscape:version="0.92.5 (2060ec1f9f, 2020-04-08)">
  <metadata
     id="metadata51">
    <rdf:RDF>
      <cc:Work
         rdf:about="">
        <dc:format>image/svg+xml</dc:format>
        <dc:type
           rdf:resource="http://purl.org/dc/dcmitype/StillImage" />
        <dc:title>19.108_V&amp;amp;D_Iconen-Site_01</dc:title>
      </cc:Work>
    </rdf:RDF>
  </metadata>
  <sodipodi:namedview
     pagecolor="#ffffff"
     bordercolor="#666666"
     borderopacity="1"
     objecttolerance="10"
     gridtolerance="10"
     guidetolerance="10"
     inkscape:pageopacity="0"
     inkscape:pageshadow="2"
     inkscape:window-width="1920"
     inkscape:window-height="1016"
     id="namedview49"
     showgrid="false"
     inkscape:pagecheckerboard="true"
     inkscape:zoom="2.9492698"
     inkscape:cx="81.545611"
     inkscape:cy="141.73"
     inkscape:window-x="0"
     inkscape:window-y="27"
     inkscape:window-maximized="1"
     inkscape:current-layer="Layer_1" />
  <defs
     id="defs42">
    <style
       id="style40">.cls-1{fill:#f0c51f;}</style>
  </defs>
  <title
     id="title44">19.108_V&amp;amp;D_Iconen-Site_01</title>
  <path
     class="cls-1"
     d="M 114.98547,38.61615 A 16.610208,16.610208 0 0 1 102.08434,44.542608 17.275423,17.275423 0 0 1 89.54605,38.958836 17.759215,17.759215 0 0 1 84.466229,26.40039 18.82759,18.82759 0 0 1 89.384786,13.499258 16.509418,16.509418 0 0 1 101.92307,7.7340643 a 16.952894,16.952894 0 0 1 12.88098,5.4225067 17.900321,17.900321 0 0 1 4.91856,12.397182 18.505062,18.505062 0 0 1 -4.73714,13.062397 m -0.68537,110.28452 -3.38655,14.6952 a 3.2051251,3.2051251 0 0 1 -1.53201,2.0158 8.0632078,8.0632078 0 0 1 -1.18932,0.50395 145.27885,145.27885 0 0 1 -15.420887,5.42251 46.948027,46.948027 0 0 1 -10.68375,1.71343 c -6.793253,0 -12.094812,-1.8747 -15.602307,-5.78535 a 19.170277,19.170277 0 0 1 -5.422507,-13.72761 30.821612,30.821612 0 0 1 0.50395,-5.60393 c 0.342687,-1.8747 0.685373,-4.03161 1.350587,-6.79325 L 73.601057,98.24357 c 0.50395,-2.197225 1.028059,-4.757293 1.532009,-7.297204 a 29.269444,29.269444 0 0 0 0.685373,-5.926457 10.643434,10.643434 0 0 0 -0.181422,-2.560069 c -0.161264,-0.846637 -1.007901,-1.854538 -1.854538,-1.854538 -0.846637,0 -1.532009,-0.181422 -2.560068,-0.181422 a 32.474569,32.474569 0 0 0 -5.079821,0.685373 c -2.378647,0.50395 -4.031604,0.846637 -5.261243,1.189323 l -6.269145,1.693274 c -0.846636,0.181422 -1.350587,-0.342687 -1.189323,-1.189323 l 3.225283,-13.566348 a 3.124493,3.124493 0 0 1 1.53201,-2.015801 l 1.007901,-0.503951 a 140.44092,140.44092 0 0 1 14.916934,-5.603929 39.812088,39.812088 0 0 1 11.207859,-1.874696 c 6.954517,0 12.094812,1.874696 15.602304,5.442665 a 19.512963,19.512963 0 0 1 5.07982,13.909034 41.545678,41.545678 0 0 1 -0.50395,5.603929 50.395049,50.395049 0 0 1 -1.37074,6.954517 L 93.436548,134.24579 c -0.665215,2.53991 -1.169165,5.07982 -1.693274,7.45847 a 24.592784,24.592784 0 0 0 -0.665214,5.26124 7.1157809,7.1157809 0 0 0 0.846637,4.23319 9.292847,9.292847 0 0 0 5.261243,1.02806 22.778562,22.778562 0 0 0 4.73713,-0.50395 16.408628,16.408628 0 0 0 4.57587,-1.02806 l 6.95452,-2.53991 c 0.50395,-0.50395 1.02806,0 0.84664,0.84663"
     id="path46"
     inkscape:connector-curvature="0"
     style="fill:#4f5137;stroke-width:2.01580191;fill-opacity:1" />
</svg>
