<?xml version="1.0" encoding="utf-8"?>
<!-- Generator: Adobe Illustrator 18.0.0, SVG Export Plug-In . SVG Version: 6.00 Build 0)  -->
<!DOCTYPE svg PUBLIC "-//W3C//DTD SVG 1.1//EN" "http://www.w3.org/Graphics/SVG/1.1/DTD/svg11.dtd">
<svg version="1.1" id="Laag_1" xmlns="http://www.w3.org/2000/svg" xmlns:xlink="http://www.w3.org/1999/xlink" x="0px" y="0px"
	 viewBox="0 0 180 180" enable-background="new 0 0 180 180" xml:space="preserve">
<path fill-rule="evenodd" clip-rule="evenodd" fill="#6E6F5B" d="M14.4,160.8C-25.9,79.7,47.7-2.4,129.5,24.4
	c46.2,15.1,66.9,98.2,24.1,128.4c-9.9,7-46.3,16.1-45.5-13.4c-0.9,0-1.8,0-2.7,0l-3.2-3.6l-4.8,1c7.4-15.3,19.9-38.5,13.4-58.9
	c-39.4-5.1-63.3,37.6-42.8,66.9c6.2,0,12.5,0,18.7,0l3.5,3.5l4.5,1.9c-15.3,21.7-49.6,6.2-53.5-16.1c-7.7-43.9,47.1-88.1,91-64.2
	c-0.1,26.9-17.3,55.2-5.4,77.6c21.5,1.9,23.1-16.2,32.1-26.8C179.5,42.2,92.3,18.9,46.5,56.5c-24.5,20.1-33,64.3-26.8,101.7l-4-1.3
	L14.4,160.8z"/>
</svg>
