<?xml version="1.0" encoding="UTF-8" standalone="no"?>
<svg
   xmlns:dc="http://purl.org/dc/elements/1.1/"
   xmlns:cc="http://creativecommons.org/ns#"
   xmlns:rdf="http://www.w3.org/1999/02/22-rdf-syntax-ns#"
   xmlns:svg="http://www.w3.org/2000/svg"
   xmlns="http://www.w3.org/2000/svg"
   xmlns:sodipodi="http://sodipodi.sourceforge.net/DTD/sodipodi-0.dtd"
   xmlns:inkscape="http://www.inkscape.org/namespaces/inkscape"
   id="Layer_1"
   data-name="Layer 1"
   viewBox="0 0 283.46 283.46"
   version="1.1"
   sodipodi:docname="internet.svg"
   inkscape:version="0.92.5 (2060ec1f9f, 2020-04-08)">
  <metadata
     id="metadata19">
    <rdf:RDF>
      <cc:Work
         rdf:about="">
        <dc:format>image/svg+xml</dc:format>
        <dc:type
           rdf:resource="http://purl.org/dc/dcmitype/StillImage" />
        <dc:title>19.108_V&amp;amp;D_Iconen-Site_01</dc:title>
      </cc:Work>
    </rdf:RDF>
  </metadata>
  <sodipodi:namedview
     pagecolor="#ffffff"
     bordercolor="#666666"
     borderopacity="1"
     objecttolerance="10"
     gridtolerance="10"
     guidetolerance="10"
     inkscape:pageopacity="0"
     inkscape:pageshadow="2"
     inkscape:window-width="1920"
     inkscape:window-height="1016"
     id="namedview17"
     showgrid="false"
     inkscape:zoom="2.9492698"
     inkscape:cx="81.545611"
     inkscape:cy="141.73"
     inkscape:window-x="0"
     inkscape:window-y="27"
     inkscape:window-maximized="1"
     inkscape:current-layer="Layer_1" />
  <defs
     id="defs4">
    <style
       id="style2">.cls-1{fill:#f0c51f;}</style>
  </defs>
  <title
     id="title6">19.108_V&amp;amp;D_Iconen-Site_01</title>
  <path
     class="cls-1"
     d="m 265.27217,85.762947 c -67.52257,-64.062481 -177.405757,-64.062481 -244.953766,0 a 8.497565,8.497565 0 0 0 0,12.46649 9.3625866,9.3625866 0 0 0 12.720905,0 c 60.500628,-57.371287 158.935001,-57.371287 219.410181,0 a 9.4134702,9.4134702 0 0 0 12.72091,0 8.5484486,8.5484486 0 0 0 0,-12.46649 z"
     id="path8"
     inkscape:connector-curvature="0"
     style="fill:#4f5137;stroke-width:2.54418111;fill-opacity:1" />
  <path
     class="cls-1"
     d="m 142.84617,93.242839 v 0 a 128.9391,128.9391 0 0 0 -89.275319,35.109701 8.5738904,8.5738904 0 0 0 0,12.49193 9.4134702,9.4134702 0 0 0 12.720906,0 112.35104,112.35104 0 0 1 153.057933,0 9.3117029,9.3117029 0 0 0 6.41134,2.54418 9.2099357,9.2099357 0 0 0 6.36046,-2.54418 8.5230068,8.5230068 0 0 0 0,-12.49193 128.83733,128.83733 0 0 0 -89.27532,-35.109701 z"
     id="path10"
     inkscape:connector-curvature="0"
     style="fill:#4f5137;stroke-width:2.54418111;fill-opacity:1" />
  <path
     class="cls-1"
     d="m 198.94536,170.91669 a 81.18482,81.18482 0 0 0 -56.12463,-22.00716 v 0 a 80.981285,80.981285 0 0 0 -55.97199,22.0326 8.5484486,8.5484486 0 0 0 0,12.46649 9.3625866,9.3625866 0 0 0 12.720909,0 63.833505,63.833505 0 0 1 86.756571,0 9.4134702,9.4134702 0 0 0 12.72091,0 8.497565,8.497565 0 0 0 2.72227,-6.23324 8.5993322,8.5993322 0 0 0 -2.72227,-6.25869 z"
     id="path12"
     inkscape:connector-curvature="0"
     style="fill:#4f5137;stroke-width:2.54418111;fill-opacity:1" />
  <path
     class="cls-1"
     d="m 142.79528,204.37267 c -17.93647,0 -32.54007,13.91667 -32.54007,31.01357 0,17.0969 14.6036,31.01357 32.54007,31.01357 17.93648,0 32.54008,-13.91667 32.54008,-31.01357 0,-17.0969 -14.6036,-31.01357 -32.54008,-31.01357 z"
     id="path14"
     inkscape:connector-curvature="0"
     style="fill:#4f5137;stroke-width:2.54418111;fill-opacity:1" />
</svg>
