<?xml version="1.0" encoding="utf-8"?>
<!-- Generator: Adobe Illustrator 18.0.0, SVG Export Plug-In . SVG Version: 6.00 Build 0)  -->
<!DOCTYPE svg PUBLIC "-//W3C//DTD SVG 1.1//EN" "http://www.w3.org/Graphics/SVG/1.1/DTD/svg11.dtd">
<svg version="1.1" id="Laag_1" xmlns="http://www.w3.org/2000/svg" xmlns:xlink="http://www.w3.org/1999/xlink" x="0px" y="0px"
	 viewBox="0 0 180 180" enable-background="new 0 0 180 180" xml:space="preserve">
<g>
	<path fill="#6E6F5B" d="M43.4,143.9h8.7c1.6,0,2.9-1.3,2.9-2.9V90.3c0-1.6-1.3-2.9-2.9-2.9h-8.7c-1.6,0-2.9,1.3-2.9,2.9V141
		C40.5,142.6,41.8,143.9,43.4,143.9z M42.6,130.5h10.5v9.8H42.6V130.5z"/>
	<path fill="#6E6F5B" d="M26,143.9h8.7c1.6,0,2.9-1.3,2.9-2.9V90.3c0-1.6-1.3-2.9-2.9-2.9H26c-1.6,0-2.9,1.3-2.9,2.9V141
		C23.1,142.6,24.4,143.9,26,143.9z M25.1,130.5h10.5v9.8H25.1V130.5z"/>
	<path fill="#6E6F5B" d="M60.9,143.9h8.7c1.6,0,2.9-1.3,2.9-2.9V90.3c0-1.6-1.3-2.9-2.9-2.9h-8.7c-1.6,0-2.9,1.3-2.9,2.9V141
		C58,142.6,59.3,143.9,60.9,143.9z M60,130.5h10.5v9.8H60V130.5z"/>
	<path fill="#6E6F5B" d="M43.4,61.7h8.7c1.6,0,2.9-1.3,2.9-2.9V8c0-1.6-1.3-2.9-2.9-2.9h-8.7c-1.6,0-2.9,1.3-2.9,2.9v50.7
		C40.5,60.3,41.8,61.7,43.4,61.7z M42.5,48.3H53v9.8H42.5V48.3z"/>
	<path fill="#6E6F5B" d="M26,61.7h8.7c1.6,0,2.9-1.3,2.9-2.9V8c0-1.6-1.3-2.9-2.9-2.9H26c-1.6,0-2.9,1.3-2.9,2.9v50.7
		C23.1,60.3,24.4,61.7,26,61.7z M25.1,48.3h10.5v9.8H25.1V48.3z"/>
	<path fill="#6E6F5B" d="M60.9,61.7h8.7c1.6,0,2.9-1.3,2.9-2.9V8c0-1.6-1.3-2.9-2.9-2.9h-8.7C59.3,5.1,58,6.4,58,8v50.7
		C58,60.3,59.3,61.7,60.9,61.7z M60,48.3h10.5v9.8H60V48.3z"/>
	<path fill="#6E6F5B" d="M130.9,143.9h8.7c1.6,0,2.9-1.3,2.9-2.9V90.3c0-1.6-1.3-2.9-2.9-2.9h-8.7c-1.6,0-2.9,1.3-2.9,2.9V141
		C128,142.6,129.3,143.9,130.9,143.9z M130,130.5h10.5v9.8H130V130.5z"/>
	<path fill="#6E6F5B" d="M92.5,141.6c0.5,1.5,2.2,2.3,3.7,1.8l8.3-2.8c1.5-0.5,2.3-2.2,1.8-3.7L90,88.9c-0.5-1.5-2.2-2.3-3.7-1.8
		L78,89.9c-1.5,0.5-2.3,2.2-1.8,3.7L92.5,141.6z M101,127.7l3.2,9.3l-10,3.4L91,131L101,127.7z"/>
	<path fill="#6E6F5B" d="M148.9,143.9h8.7c1.6,0,2.9-1.3,2.9-2.9V90.3c0-1.6-1.3-2.9-2.9-2.9h-8.7c-1.6,0-2.9,1.3-2.9,2.9V141
		C145.9,142.6,147.3,143.9,148.9,143.9z M148,130.5h10.5v9.8H148V130.5z"/>
	<path fill="#6E6F5B" d="M163.5,19.8v44.5H18.7V19.8H9.5v157h9.2v-21.6h144.8v21.6h9.2v-21.6v-9.2V73.5v-9.2V19.8H163.5z
		 M163.5,146.1H18.7V73.5h144.8V146.1z"/>
</g>
</svg>
