<?xml version="1.0" encoding="utf-8"?>
<!-- Generator: Adobe Illustrator 18.0.0, SVG Export Plug-In . SVG Version: 6.00 Build 0)  -->
<!DOCTYPE svg PUBLIC "-//W3C//DTD SVG 1.1//EN" "http://www.w3.org/Graphics/SVG/1.1/DTD/svg11.dtd">
<svg version="1.1" id="Laag_1" xmlns="http://www.w3.org/2000/svg" xmlns:xlink="http://www.w3.org/1999/xlink" x="0px" y="0px"
	 viewBox="0 0 180 180" enable-background="new 0 0 180 180" xml:space="preserve">
<g>
	<path fill="#6E6F5B" d="M75.7,14.6h23.4c0,0,0,27.5,0,33.6c14.2,0,28.4-1.4,28.4,17c-29.9,0-80.2,0-80.2,0s-3.5-17.4,28.4-17.4
		V14.6z"/>
	<path fill="#6E6F5B" d="M59.7,75.1c0,2.9-2.3,5.2-5.2,5.2h-0.3c-2.9,0-5.2-2.3-5.2-5.2l0,0c0-2.9,2.3-5.2,5.2-5.2h0.3
		C57.3,69.9,59.7,72.2,59.7,75.1L59.7,75.1z"/>
	<path fill="#6E6F5B" d="M76.4,75.1c0,2.9-2.3,5.2-5.2,5.2h-0.3c-2.9,0-5.2-2.3-5.2-5.2l0,0c0-2.9,2.3-5.2,5.2-5.2h0.3
		C74.1,69.9,76.4,72.2,76.4,75.1L76.4,75.1z"/>
	<path fill="#6E6F5B" d="M92.7,75.1c0,2.9-2.3,5.2-5.2,5.2h-0.3c-2.9,0-5.2-2.3-5.2-5.2l0,0c0-2.9,2.3-5.2,5.2-5.2h0.3
		C90.4,69.9,92.7,72.2,92.7,75.1L92.7,75.1z"/>
	<path fill="#6E6F5B" d="M109,75.1c0,2.9-2.3,5.2-5.2,5.2h-0.3c-2.9,0-5.2-2.3-5.2-5.2l0,0c0-2.9,2.3-5.2,5.2-5.2h0.3
		C106.7,69.9,109,72.2,109,75.1L109,75.1z"/>
	<path fill="#6E6F5B" d="M125.3,75.1c0,2.9-2.3,5.2-5.2,5.2h-0.3c-2.9,0-5.2-2.3-5.2-5.2l0,0c0-2.9,2.3-5.2,5.2-5.2h0.3
		C123,69.9,125.3,72.2,125.3,75.1L125.3,75.1z"/>
	<path fill="#6E6F5B" d="M57.9,92.4c0,2.9-2.3,5.2-5.2,5.2h-0.3c-2.9,0-5.2-2.3-5.2-5.2l0,0c0-2.9,2.3-5.2,5.2-5.2h0.3
		C55.6,87.3,57.9,89.6,57.9,92.4L57.9,92.4z"/>
	<path fill="#6E6F5B" d="M76.4,92.4c0,2.9-2.3,5.2-5.2,5.2h-0.3c-2.9,0-5.2-2.3-5.2-5.2l0,0c0-2.9,2.3-5.2,5.2-5.2h0.3
		C74.1,87.3,76.4,89.6,76.4,92.4L76.4,92.4z"/>
	<path fill="#6E6F5B" d="M93.8,92.4c0,2.9-2.3,5.2-5.2,5.2h-0.3c-2.9,0-5.2-2.3-5.2-5.2l0,0c0-2.9,2.3-5.2,5.2-5.2h0.3
		C91.4,87.3,93.8,89.6,93.8,92.4L93.8,92.4z"/>
	<path fill="#6E6F5B" d="M110.7,92.4c0,2.9-2.3,5.2-5.2,5.2h-0.3c-2.9,0-5.2-2.3-5.2-5.2l0,0c0-2.9,2.3-5.2,5.2-5.2h0.3
		C108.4,87.3,110.7,89.6,110.7,92.4L110.7,92.4z"/>
	<path fill="#6E6F5B" d="M127.5,92.4c0,2.9-2.3,5.2-5.2,5.2H122c-2.9,0-5.2-2.3-5.2-5.2l0,0c0-2.9,2.3-5.2,5.2-5.2h0.3
		C125.2,87.3,127.5,89.6,127.5,92.4L127.5,92.4z"/>
	<path fill="#6E6F5B" d="M57.9,109.8c0,2.9-2.3,5.2-5.2,5.2h-0.3c-2.9,0-5.2-2.3-5.2-5.2l0,0c0-2.9,2.3-5.2,5.2-5.2h0.3
		C55.6,104.6,57.9,106.9,57.9,109.8L57.9,109.8z"/>
	<path fill="#6E6F5B" d="M75,109.8c0,2.9-2.3,5.2-5.2,5.2h-0.3c-2.9,0-5.2-2.3-5.2-5.2l0,0c0-2.9,2.3-5.2,5.2-5.2h0.3
		C72.7,104.6,75,106.9,75,109.8L75,109.8z"/>
	<path fill="#6E6F5B" d="M92.7,109.8c0,2.9-2.3,5.2-5.2,5.2h-0.3c-2.9,0-5.2-2.3-5.2-5.2l0,0c0-2.9,2.3-5.2,5.2-5.2h0.3
		C90.4,104.6,92.7,106.9,92.7,109.8L92.7,109.8z"/>
	<path fill="#6E6F5B" d="M110.7,109.8c0,2.9-2.3,5.2-5.2,5.2h-0.3c-2.9,0-5.2-2.3-5.2-5.2l0,0c0-2.9,2.3-5.2,5.2-5.2h0.3
		C108.4,104.6,110.7,106.9,110.7,109.8L110.7,109.8z"/>
	<path fill="#6E6F5B" d="M127.5,109.8c0,2.9-2.3,5.2-5.2,5.2H122c-2.9,0-5.2-2.3-5.2-5.2l0,0c0-2.9,2.3-5.2,5.2-5.2h0.3
		C125.2,104.6,127.5,106.9,127.5,109.8L127.5,109.8z"/>
	<path fill="#6E6F5B" d="M57.9,127.1c0,2.9-2.3,5.2-5.2,5.2h-0.3c-2.9,0-5.2-2.3-5.2-5.2l0,0c0-2.9,2.3-5.2,5.2-5.2h0.3
		C55.6,121.9,57.9,124.3,57.9,127.1L57.9,127.1z"/>
	<path fill="#6E6F5B" d="M75,127.1c0,2.9-2.3,5.2-5.2,5.2h-0.3c-2.9,0-5.2-2.3-5.2-5.2l0,0c0-2.9,2.3-5.2,5.2-5.2h0.3
		C72.7,121.9,75,124.3,75,127.1L75,127.1z"/>
	<path fill="#6E6F5B" d="M93.1,127.1c0,2.9-2.3,5.2-5.2,5.2h-0.3c-2.9,0-5.2-2.3-5.2-5.2l0,0c0-2.9,2.3-5.2,5.2-5.2h0.3
		C90.8,121.9,93.1,124.3,93.1,127.1L93.1,127.1z"/>
	<path fill="#6E6F5B" d="M93.1,147.3c0,2.9-2.3,5.2-5.2,5.2h-0.3c-2.9,0-5.2-2.3-5.2-5.2l0,0c0-2.9,2.3-5.2,5.2-5.2h0.3
		C90.8,142.1,93.1,144.4,93.1,147.3L93.1,147.3z"/>
	<path fill="#6E6F5B" d="M93.1,167c0,2.9-2.3,5.2-5.2,5.2h-0.3c-2.9,0-5.2-2.3-5.2-5.2l0,0c0-2.9,2.3-5.2,5.2-5.2h0.3
		C90.8,161.8,93.1,164.1,93.1,167L93.1,167z"/>
	<path fill="#6E6F5B" d="M132.8,167c0,2.9-2.3,5.2-5.2,5.2h-0.3c-2.9,0-5.2-2.3-5.2-5.2l0,0c0-2.9,2.3-5.2,5.2-5.2h0.3
		C130.5,161.8,132.8,164.1,132.8,167L132.8,167z"/>
	<path fill="#6E6F5B" d="M110.7,127.1c0,2.9-2.3,5.2-5.2,5.2h-0.3c-2.9,0-5.2-2.3-5.2-5.2l0,0c0-2.9,2.3-5.2,5.2-5.2h0.3
		C108.4,121.9,110.7,124.3,110.7,127.1L110.7,127.1z"/>
	<path fill="#6E6F5B" d="M129.6,127.1c0,2.9-2.3,5.2-5.2,5.2H124c-2.9,0-5.2-2.3-5.2-5.2l0,0c0-2.9,2.3-5.2,5.2-5.2h0.3
		C127.2,121.9,129.6,124.3,129.6,127.1L129.6,127.1z"/>
	<path fill="#6E6F5B" d="M130.7,147.3c0,2.9-2.3,5.2-5.2,5.2h-0.3c-2.9,0-5.2-2.3-5.2-5.2l0,0c0-2.9,2.3-5.2,5.2-5.2h0.3
		C128.3,142.1,130.7,144.4,130.7,147.3L130.7,147.3z"/>
	<path fill="#6E6F5B" d="M75,147.3c0,2.9-2.3,5.2-5.2,5.2h-0.3c-2.9,0-5.2-2.3-5.2-5.2l0,0c0-2.9,2.3-5.2,5.2-5.2h0.3
		C72.7,142.1,75,144.4,75,147.3L75,147.3z"/>
	<path fill="#6E6F5B" d="M110.7,147.3c0,2.9-2.3,5.2-5.2,5.2h-0.3c-2.9,0-5.2-2.3-5.2-5.2l0,0c0-2.9,2.3-5.2,5.2-5.2h0.3
		C108.4,142.1,110.7,144.4,110.7,147.3L110.7,147.3z"/>
	<path fill="#6E6F5B" d="M56.3,147.3c0,2.9-2.3,5.2-5.2,5.2h-0.3c-2.9,0-5.2-2.3-5.2-5.2l0,0c0-2.9,2.3-5.2,5.2-5.2h0.3
		C54,142.1,56.3,144.4,56.3,147.3L56.3,147.3z"/>
	<path fill="#6E6F5B" d="M54.3,167c0,2.9-2.3,5.2-5.2,5.2h-0.3c-2.9,0-5.2-2.3-5.2-5.2l0,0c0-2.9,2.3-5.2,5.2-5.2h0.3
		C52,161.8,54.3,164.1,54.3,167L54.3,167z"/>
</g>
</svg>
