<?xml version="1.0" encoding="UTF-8" standalone="no"?>
<svg
   xmlns:dc="http://purl.org/dc/elements/1.1/"
   xmlns:cc="http://creativecommons.org/ns#"
   xmlns:rdf="http://www.w3.org/1999/02/22-rdf-syntax-ns#"
   xmlns:svg="http://www.w3.org/2000/svg"
   xmlns="http://www.w3.org/2000/svg"
   xmlns:sodipodi="http://sodipodi.sourceforge.net/DTD/sodipodi-0.dtd"
   xmlns:inkscape="http://www.inkscape.org/namespaces/inkscape"
   id="Layer_1"
   data-name="Layer 1"
   viewBox="0 0 180.00001 180.00001"
   version="1.1"
   sodipodi:docname="sauna.svg"
   width="180"
   height="180"
   inkscape:version="0.92.5 (2060ec1f9f, 2020-04-08)">
  <metadata
     id="metadata147">
    <rdf:RDF>
      <cc:Work
         rdf:about="">
        <dc:format>image/svg+xml</dc:format>
        <dc:type
           rdf:resource="http://purl.org/dc/dcmitype/StillImage" />
        <dc:title>19.108_V&amp;amp;D_Iconen-Site_01</dc:title>
      </cc:Work>
    </rdf:RDF>
  </metadata>
  <sodipodi:namedview
     pagecolor="#ffffff"
     bordercolor="#666666"
     borderopacity="1"
     objecttolerance="10"
     gridtolerance="10"
     guidetolerance="10"
     inkscape:pageopacity="0"
     inkscape:pageshadow="2"
     inkscape:window-width="1920"
     inkscape:window-height="1016"
     id="namedview145"
     showgrid="false"
     inkscape:zoom="4.6555556"
     inkscape:cx="51.873508"
     inkscape:cy="90"
     inkscape:window-x="0"
     inkscape:window-y="27"
     inkscape:window-maximized="1"
     inkscape:current-layer="Layer_1" />
  <defs
     id="defs130">
    <style
       id="style128">.cls-1{fill:#f0c51f;}</style>
  </defs>
  <title
     id="title132">19.108_V&amp;amp;D_Iconen-Site_01</title>
  <path
     class="cls-1"
     d="m 38.434844,116.69971 -0.717219,-0.35232 0.176159,-0.81788 0.188742,-84.908675 a 5.6622565,5.6622565 0 0 0 -0.276822,-2.441061 1.1576169,1.1576169 0 0 0 -0.805298,-0.188742 c -1.182783,0 -1.535101,0.45298 -1.535101,3.535763 l 0.264239,84.304705 -0.717219,0.99404 c -3.611262,1.71126 -7.222523,5.03312 -7.222523,8.31723 a 9.2106038,9.2106038 0 1 0 18.408625,0 c -0.08808,-3.34703 -3.976162,-6.60597 -7.763583,-8.41789"
     id="path134"
     inkscape:connector-curvature="0"
     style="fill:#4f5137;stroke-width:1.2582792;fill-opacity:1" />
  <path
     class="cls-1"
     d="M 36.899743,136.25337 A 11.324513,11.324513 0 0 1 25.575231,124.92886 c 0,-4.25298 4.064241,-7.87683 7.763582,-9.86491 v -0.17616 l -0.08808,-83.461657 c 0,-2.352981 0,-5.611924 3.598678,-5.611924 a 3.2337776,3.2337776 0 0 1 2.352982,0.805298 c 0.893379,0.994041 0.893379,2.453645 0.893379,3.988745 v 84.455698 c 2.352982,1.25828 8.115901,4.79404 8.115901,9.77683 A 11.450341,11.450341 0 0 1 36.88716,136.24079 m 7.222522,-26.24771 a 7.3986818,7.3986818 0 0 0 0.264239,-1.35894 V 25.914871 a 7.5496755,7.5496755 0 1 0 -15.099351,0 v 82.731859 a 6.5178863,6.5178863 0 0 0 0.276822,1.35894 17.137763,17.137763 0 1 0 14.608622,0"
     id="path136"
     inkscape:connector-curvature="0"
     style="fill:#4f5137;stroke-width:1.2582792;fill-opacity:1" />
  <polygon
     class="cls-1"
     points="188.79,178.31 188.79,158.6 208,158.6 208,152.99 183.2,152.99 183.2,172.7 143.64,172.7 143.64,194.43 91.74,194.43 91.74,200.04 149.16,200.04 149.16,178.31 "
     id="polygon138"
     style="fill:#4f5137;fill-opacity:1"
     transform="matrix(1.2582792,0,0,1.2582792,-95.760634,-86.663369)" />
  <path
     class="cls-1"
     d="m 158.41177,55.597676 a 2.6172208,2.6172208 0 0 0 0.62914,-2.352982 9.7768295,9.7768295 0 0 0 3.34702,-7.235105 9.7013327,9.7013327 0 0 0 -19.39008,0 9.8019951,9.8019951 0 0 0 5.22186,8.594047 l -4.6808,4.353647 -26.70069,24.976843 c -1.08212,1.094702 -0.81788,3.170863 0.62914,4.794043 1.44702,1.623184 3.61126,2.000668 4.69338,1.006628 l 21.39075,-20.006644 v 19.76757 h -18.62253 v 0.541061 a 3.6741753,3.6741753 0 0 0 -1.98808,-0.352319 3.9509967,3.9509967 0 0 0 -3.42252,4.429143 l 4.15232,32.413262 a 3.951723,3.951723 0 1 0 7.83908,-1.00662 l -2.96954,-23.25299 H 162.2621 V 58.856621 l -1.1702,-3.070203 z"
     id="path140"
     inkscape:connector-curvature="0"
     style="fill:#4f5137;stroke-width:1.2582792;fill-opacity:1" />
  <path
     class="cls-1"
     d="m 108.33225,81.316905 a 2.6801347,2.6801347 0 0 0 0.62914,-2.352982 9.8774918,9.8774918 0 0 0 3.34702,-7.335768 9.6510016,9.6510016 0 1 0 -19.301996,0 9.8019951,9.8019951 0 0 0 5.22186,8.594047 l -4.6808,4.441726 -26.612606,24.964252 c -1.08212,1.09471 -0.805298,3.17087 0.62914,4.80663 1.434438,1.63576 3.611261,1.98808 4.693381,0.99404 L 93.547474,95.422219 V 115.16461 H 74.786531 v 0.62914 a 3.7748376,3.7748376 0 0 0 -5.322521,4.07683 l 4.152321,32.41327 a 3.9509967,3.9509967 0 1 0 7.839079,-0.99404 L 78.385209,127.92356 H 112.20775 V 84.663928 Z"
     id="path142"
     inkscape:connector-curvature="0"
     style="fill:#4f5137;stroke-width:1.2582792;fill-opacity:1" />
</svg>
