<?xml version="1.0" encoding="utf-8"?>
<!-- Generator: Adobe Illustrator 18.0.0, SVG Export Plug-In . SVG Version: 6.00 Build 0)  -->
<!DOCTYPE svg PUBLIC "-//W3C//DTD SVG 1.1//EN" "http://www.w3.org/Graphics/SVG/1.1/DTD/svg11.dtd">
<svg version="1.1" id="Laag_1" xmlns="http://www.w3.org/2000/svg" xmlns:xlink="http://www.w3.org/1999/xlink" x="0px" y="0px"
	 viewBox="0 0 180 180" enable-background="new 0 0 180 180" xml:space="preserve">
<g>
	<path fill="#6E6F5B" d="M29.7,116.3l-0.8-0.4l0.2-0.9l0.2-93.8c0-1.1,0-2.3-0.3-2.7c-0.2-0.2-0.6-0.2-0.9-0.2
		c-1.3,0-1.7,0.5-1.7,3.9l0.3,93.1l-0.8,1.1c-4,1.9-8,5.5-8,9.2c0,5.6,4.6,10.2,10.2,10.2c5.6,0,10.2-4.6,10.2-10.2
		C38.2,121.9,33.9,118.3,29.7,116.3z"/>
	<path fill="#6E6F5B" d="M36,108.9c0.1-0.5,0.3-1,0.3-1.5V16c0-4.7-3.8-8.4-8.4-8.4c-4.7,0-8.4,3.8-8.4,8.4v91.4
		c0,0.5,0.2,1,0.3,1.5C13.4,112,8.9,118.5,8.9,126c0,10.5,8.5,19,19,19c10.5,0,19-8.5,19-19C46.9,118.5,42.5,112,36,108.9z
		 M28,137.9c-6.9,0-12.5-5.6-12.5-12.5c0-4.7,4.5-8.7,8.6-10.9c0-0.1,0-0.2,0-0.2L24,22.1c0-2.6,0-6.2,4-6.2c1.1,0,2,0.3,2.6,0.9
		c1,1.1,1,2.7,1,4.4l0,0.9l0,92.4c2.6,1.4,9,5.3,9,10.8C40.5,132.3,34.9,137.9,28,137.9z"/>
</g>
<polygon fill="#6E6F5B" points="89,169.7 8.9,169.7 8.9,161.9 81.3,161.9 81.3,131.7 136.5,131.7 136.5,104.3 171.1,104.3
	171.1,112.1 144.3,112.1 144.3,139.5 89,139.5 89,169.7 "/>
<path fill="#6E6F5B" d="M162.7,48.8c0.7-0.6,0.8-1.6,0.7-2.6c2.2-2,3.7-4.8,3.7-8c0-5.9-4.8-10.7-10.7-10.7
	c-5.9,0-10.8,4.8-10.8,10.7c0,4.1,2.4,7.7,5.8,9.5l-5.2,4.8l0,0v0l-29.6,27.6c-1.2,1.2-0.9,3.5,0.7,5.3c1.6,1.8,4,2.2,5.2,1.1
	l23.7-22.1v21.9h-20.6v0.6c-0.7-0.3-1.4-0.5-2.2-0.4c-2.4,0.3-4.1,2.5-3.8,4.9l4.6,35.8c0.3,2.4,2.5,4.1,4.9,3.8
	c2.4-0.3,4.1-2.5,3.8-4.9l-3.3-25.7H167v-4.8v-9.3V52.4l-1.3-3.4L162.7,48.8z"/>
<path fill="#6E6F5B" d="M107.2,77.2c0.7-0.6,0.8-1.6,0.7-2.6c2.2-2,3.7-4.8,3.7-8.1c0-5.9-4.8-10.7-10.7-10.7
	c-5.9,0-10.7,4.8-10.7,10.7c0,4.1,2.4,7.7,5.8,9.5l-5.2,4.9h0l0,0l-29.5,27.6c-1.2,1.2-0.9,3.5,0.7,5.3c1.6,1.7,4,2.2,5.2,1.1
	l23.6-22.1v21.8H70v0.7c-0.7-0.3-1.4-0.5-2.2-0.4c-2.4,0.3-4.1,2.5-3.7,4.9l4.6,35.8c0.3,2.4,2.5,4.1,4.9,3.8
	c2.4-0.3,4.1-2.5,3.8-4.9L74,128.7h37.5v-4.8v-9.3V80.9L107.2,77.2L107.2,77.2z"/>
</svg>
