<?xml version="1.0" encoding="UTF-8" standalone="no"?>
<svg
   xmlns:dc="http://purl.org/dc/elements/1.1/"
   xmlns:cc="http://creativecommons.org/ns#"
   xmlns:rdf="http://www.w3.org/1999/02/22-rdf-syntax-ns#"
   xmlns:svg="http://www.w3.org/2000/svg"
   xmlns="http://www.w3.org/2000/svg"
   xmlns:sodipodi="http://sodipodi.sourceforge.net/DTD/sodipodi-0.dtd"
   xmlns:inkscape="http://www.inkscape.org/namespaces/inkscape"
   id="Layer_1"
   data-name="Layer 1"
   viewBox="0 0 180.00001 176.00001"
   version="1.1"
   sodipodi:docname="speelplein.svg"
   width="180"
   height="176"
   inkscape:version="0.92.5 (2060ec1f9f, 2020-04-08)">
  <metadata
     id="metadata160">
    <rdf:RDF>
      <cc:Work
         rdf:about="">
        <dc:format>image/svg+xml</dc:format>
        <dc:type
           rdf:resource="http://purl.org/dc/dcmitype/StillImage" />
        <dc:title>19.108_V&amp;amp;D_Iconen-Site_01</dc:title>
      </cc:Work>
    </rdf:RDF>
  </metadata>
  <sodipodi:namedview
     pagecolor="#ffffff"
     bordercolor="#666666"
     borderopacity="1"
     objecttolerance="10"
     gridtolerance="10"
     guidetolerance="10"
     inkscape:pageopacity="0"
     inkscape:pageshadow="2"
     inkscape:window-width="1920"
     inkscape:window-height="1016"
     id="namedview158"
     showgrid="false"
     inkscape:zoom="4.7613636"
     inkscape:cx="52.720764"
     inkscape:cy="88"
     inkscape:window-x="0"
     inkscape:window-y="27"
     inkscape:window-maximized="1"
     inkscape:current-layer="Layer_1" />
  <defs
     id="defs151">
    <style
       id="style149">.cls-1{fill:#f0c51f;}</style>
  </defs>
  <title
     id="title153">19.108_V&amp;amp;D_Iconen-Site_01</title>
  <path
     class="cls-1"
     d="m 131.18322,59.281796 a 2.7781397,2.7781397 0 1 1 -5.54404,0 0.69759455,0.69759455 0 0 0 0,-0.159101 h 5.56852 a 0.69759455,0.69759455 0 0 0 0,0.159101 m -2.6068,78.326404 a 0.17133901,0.17133901 0 0 1 -0.17134,0.17133 h -26.10472 a 0.17133901,0.17133901 0 0 1 -0.17134,-0.17133 v -5.21361 a 0.15910051,0.15910051 0 0 1 0.17134,-0.1591 h 26.08024 a 0.15910051,0.15910051 0 0 1 0.17134,0.1591 z M 99.55894,59.122695 h 5.55628 c 0,0 0,0.110147 0,0.159101 a 2.7781397,2.7781397 0 1 1 -5.54404,0 v -0.159101 m -15.322604,0.159101 a 2.7781397,2.7781397 0 1 1 -5.544041,0 0.69759455,0.69759455 0 0 0 0,-0.159101 h 5.568518 a 0.69759455,0.69759455 0 0 0 0,0.159101 M 81.666252,137.6082 a 0.15910051,0.15910051 0 0 1 -0.1591,0.17133 H 55.365714 a 0.15910051,0.15910051 0 0 1 -0.1591,-0.17133 v -5.21361 a 0.15910051,0.15910051 0 0 1 0.1591,-0.1591 h 26.092484 a 0.15910051,0.15910051 0 0 1 0.1591,0.1591 z M 52.636528,59.183888 h 5.55628 c 0,0 0,0.110146 0,0.1591 a 2.7781397,2.7781397 0 1 1 -5.544041,0 v -0.1591 m 5.164647,54.730572 h 21.197084 v 2.93724 H 57.813414 Z m 0,7.83264 h 21.197084 v 5.54404 H 57.813414 Z M 79.010498,66.563704 V 109.01906 H 57.813414 V 66.551465 a 7.6857785,7.6857785 0 0 0 5.213602,-7.269669 0.69759455,0.69759455 0 0 0 0,-0.159101 h 10.831073 c 0,0 0,0.110147 0,0.159101 a 7.6857785,7.6857785 0 0 0 5.22584,7.269669 m 25.700851,47.350755 h 21.19708 v 2.93724 h -21.20932 z m 0,7.83264 h 21.19708 v 5.54404 H 104.77254 Z M 125.98186,66.551465 V 109.01906 H 104.77254 V 66.551465 a 7.6857785,7.6857785 0 0 0 5.2136,-7.269669 0.69759455,0.69759455 0 0 0 0,-0.159101 h 10.78212 c 0,0 0,0.110147 0,0.159101 a 7.6857785,7.6857785 0 0 0 5.22584,7.269669 m 38.96739,86.807685 h -3.18201 l -17.1339,-92.853504 a 7.6613015,7.6613015 0 0 0 -7.53892,-6.278351 H 46.66414 a 7.67354,7.67354 0 0 0 -7.538916,6.278351 L 21.991322,153.35915 h -3.18201 a 2.4477002,2.4477002 0 1 0 0,4.8954 h 10.427203 a 2.4477002,2.4477002 0 0 0 0,-4.8954 H 26.996869 L 43.934954,61.399057 a 2.7781397,2.7781397 0 0 1 2.729186,-2.276362 h 1.040273 v 0.159101 a 7.6857785,7.6857785 0 0 0 5.213601,7.269669 V 127.9153 a 5.0422623,5.0422623 0 0 0 -2.606801,4.4181 v 5.2136 a 5.0545008,5.0545008 0 0 0 5.054501,5.0545 H 81.458198 A 5.0667393,5.0667393 0 0 0 86.5127,137.547 v -5.2136 a 5.0545008,5.0545008 0 0 0 -2.61904,-4.4181 V 66.551465 a 7.6857785,7.6857785 0 0 0 5.22584,-7.269669 c 0,0 0,-0.110147 0,-0.159101 h 5.54404 v 0.159101 a 7.67354,7.67354 0 0 0 5.2136,7.269669 V 127.9153 a 5.0422623,5.0422623 0 0 0 -2.6068,4.4181 v 5.2136 a 5.0545008,5.0545008 0 0 0 5.0545,5.0545 h 26.08024 a 5.0545008,5.0545008 0 0 0 5.05451,-5.0545 v -5.2136 a 5.0422623,5.0422623 0 0 0 -2.60681,-4.4181 V 66.551465 a 7.6857785,7.6857785 0 0 0 5.22584,-7.269669 c 0,0 0,-0.110147 0,-0.159101 h 1.04028 a 2.7659012,2.7659012 0 0 1 2.72918,2.264123 l 16.93809,91.972332 h -2.27636 a 2.4477002,2.4477002 0 0 0 0,4.8954 h 10.43944 a 2.4477002,2.4477002 0 0 0 0,-4.8954"
     id="path155"
     inkscape:connector-curvature="0"
     style="fill:#4f5137;stroke-width:1.22385013;fill-opacity:1" />
</svg>
