<?xml version="1.0" encoding="UTF-8" standalone="no"?>
<!-- Generator: Adobe Illustrator 13.0.2, SVG Export Plug-In . SVG Version: 6.00 Build 14948)  -->

<svg
   xmlns:dc="http://purl.org/dc/elements/1.1/"
   xmlns:cc="http://creativecommons.org/ns#"
   xmlns:rdf="http://www.w3.org/1999/02/22-rdf-syntax-ns#"
   xmlns:svg="http://www.w3.org/2000/svg"
   xmlns="http://www.w3.org/2000/svg"
   xmlns:sodipodi="http://sodipodi.sourceforge.net/DTD/sodipodi-0.dtd"
   xmlns:inkscape="http://www.inkscape.org/namespaces/inkscape"
   id="Layer_1"
   style="enable-background:new -0.258 -0.548 123.547 123.539"
   xml:space="preserve"
   viewBox="-0.258 -0.548 123.547 123.539"
   version="1.1"
   y="0px"
   x="0px"
   inkscape:version="0.91 r13725"
   sodipodi:docname="speelplein.svg"><defs
     id="defs23" /><sodipodi:namedview
     pagecolor="#ffffff"
     bordercolor="#666666"
     borderopacity="1"
     objecttolerance="10"
     gridtolerance="10"
     guidetolerance="10"
     inkscape:pageopacity="0"
     inkscape:pageshadow="2"
     inkscape:window-width="1920"
     inkscape:window-height="1025"
     id="namedview21"
     showgrid="false"
     inkscape:zoom="7.0018374"
     inkscape:cx="40.63619"
     inkscape:cy="61.769501"
     inkscape:window-x="0"
     inkscape:window-y="27"
     inkscape:window-maximized="1"
     inkscape:current-layer="g3" /><g
     id="g3"><g
       id="g3351"
       style="fill:#6e6f5b;fill-opacity:1"><path
         id="path9"
         d="m26.656 61.293c5.492 0 9.938-4.445 9.938-9.938 0-5.469-4.445-9.914-9.938-9.914-5.469 0-9.914 4.445-9.914 9.914 0 5.493 4.446 9.938 9.914 9.938z"
         style="fill:#6e6f5b;fill-opacity:1" /><path
         id="path11"
         d="m82.305 78.355c0.461-0.312 1.07-0.219 1.414 0.219l1.828 2.539c0.32 0.445 0.227 1.078-0.219 1.422l-13.477 9.789c-0.438 0.312-1.07 0.219-1.414-0.219l-1.828-2.539c-0.312-0.445-0.219-1.078 0.227-1.422l13.469-9.789z"
         style="fill:#6e6f5b;fill-opacity:1" /><polygon
         id="polygon13"
         points="67.078 65.738 61.727 56.363 58.922 58.41 64.266 67.832"
         style="fill:#6e6f5b;fill-opacity:1" /><polygon
         id="polygon15"
         points="54.602 43.832 33.812 7.34 29.828 7.363 51.766 45.91"
         style="fill:#6e6f5b;fill-opacity:1" /><path
         id="path17"
         d="m74.172 63.145c1.172-0.852 2.516-1.508 4.055-1.508l19.312 0.023c3.758 0 6.781 3.047 6.781 6.781 0 3.766-3.023 6.789-6.781 6.789l-16.117-0.023-20.57 14.523c-7.25 5.227-11.648-0.508-11.648-0.508l-16.149-16.163c-2.711-3.25-2.125-9.422 1.125-12.156l22.351-15.923c2.219-1.852 5.516-1.562 7.391 0.641 1.859 2.219 1.562 5.539-0.656 7.391l-14.305 10.476 10.273 10.156 14.938-10.499z"
         style="fill:#6e6f5b;fill-opacity:1" /></g></g><metadata
     id="metadata19"><rdf:RDF><cc:Work><dc:format>image/svg+xml</dc:format><dc:type
           rdf:resource="http://purl.org/dc/dcmitype/StillImage" /><cc:license
           rdf:resource="http://creativecommons.org/licenses/publicdomain/" /><dc:publisher><cc:Agent
             rdf:about="http://openclipart.org/"><dc:title>Openclipart</dc:title></cc:Agent></dc:publisher><dc:title>Land recreation symbols 18</dc:title><dc:date>2006-12-26T00:00:00</dc:date><dc:description /><dc:source>https://openclipart.org/detail/13804/-by--13804</dc:source><dc:creator><cc:Agent><dc:title>johnny_automatic</dc:title></cc:Agent></dc:creator></cc:Work><cc:License
         rdf:about="http://creativecommons.org/licenses/publicdomain/"><cc:permits
           rdf:resource="http://creativecommons.org/ns#Reproduction" /><cc:permits
           rdf:resource="http://creativecommons.org/ns#Distribution" /><cc:permits
           rdf:resource="http://creativecommons.org/ns#DerivativeWorks" /></cc:License></rdf:RDF></metadata></svg>
