<?xml version="1.0" encoding="utf-8"?>
<!-- Generator: Adobe Illustrator 18.0.0, SVG Export Plug-In . SVG Version: 6.00 Build 0)  -->
<!DOCTYPE svg PUBLIC "-//W3C//DTD SVG 1.1//EN" "http://www.w3.org/Graphics/SVG/1.1/DTD/svg11.dtd">
<svg version="1.1" id="Laag_1" xmlns="http://www.w3.org/2000/svg" xmlns:xlink="http://www.w3.org/1999/xlink" x="0px" y="0px"
	 viewBox="0 0 180 180" enable-background="new 0 0 180 180" xml:space="preserve">
<path fill="#6E6F5B" d="M147.7,11.2H32.3c-5.7,0-10.3,4.6-10.3,10.3v24.7h136V21.5C158,15.8,153.4,11.2,147.7,11.2z M66.9,37H33.8
	V23.3h33.1V37z M83.6,34c-2.1,0-3.8-1.7-3.8-3.8s1.7-3.8,3.8-3.8c2.1,0,3.8,1.7,3.8,3.8S85.7,34,83.6,34z M96.6,34
	c-2.1,0-3.8-1.7-3.8-3.8s1.7-3.8,3.8-3.8c2.1,0,3.8,1.7,3.8,3.8S98.8,34,96.6,34z M134.2,36.6c-3.5,0-6.4-2.9-6.4-6.4
	c0-3.5,2.9-6.4,6.4-6.4c3.5,0,6.4,2.9,6.4,6.4C140.6,33.7,137.7,36.6,134.2,36.6z"/>
<path fill="#6E6F5B" d="M90,69.2c-22.3,0-40.3,18.1-40.3,40.3c0,22.3,18.1,40.3,40.3,40.3c22.3,0,40.3-18.1,40.3-40.3
	C130.3,87.3,112.3,69.2,90,69.2z M125.1,112.5c-9.6,5.3-21.7,8.5-35.1,8.5c-13.3,0-25.5-3.2-35.1-8.5c-0.1-1-0.1-2-0.1-3
	c0-19.4,15.8-35.2,35.2-35.2c19.4,0,35.2,15.8,35.2,35.2C125.2,110.5,125.1,111.5,125.1,112.5z"/>
<path fill="#6E6F5B" d="M22,51.1v109.7c0,5.7,4.6,10.3,10.3,10.3h115.4c5.7,0,10.3-4.6,10.3-10.3V51.1H22z M90,156.1
	c-25.7,0-46.6-20.9-46.6-46.6c0-25.7,20.9-46.6,46.6-46.6c25.7,0,46.6,20.9,46.6,46.6C136.6,135.3,115.7,156.1,90,156.1z"/>
</svg>
