<?xml version="1.0" encoding="UTF-8" standalone="no"?>
<!-- Generator: Adobe Illustrator 18.1.0, SVG Export Plug-In . SVG Version: 6.00 Build 0)  -->

<svg
   xmlns:dc="http://purl.org/dc/elements/1.1/"
   xmlns:cc="http://creativecommons.org/ns#"
   xmlns:rdf="http://www.w3.org/1999/02/22-rdf-syntax-ns#"
   xmlns:svg="http://www.w3.org/2000/svg"
   xmlns="http://www.w3.org/2000/svg"
   xmlns:sodipodi="http://sodipodi.sourceforge.net/DTD/sodipodi-0.dtd"
   xmlns:inkscape="http://www.inkscape.org/namespaces/inkscape"
   version="1.1"
   id="Ebene_1"
   x="0px"
   y="0px"
   viewBox="0 0 78.4 18.2"
   enable-background="new 0 0 78.4 18.2"
   xml:space="preserve"
   inkscape:version="0.48.5 r10040"
   width="100%"
   height="100%"
   sodipodi:docname="btn-virtualtour.svg"><metadata
     id="metadata147"><rdf:RDF><cc:Work
         rdf:about=""><dc:format>image/svg+xml</dc:format><dc:type
           rdf:resource="http://purl.org/dc/dcmitype/StillImage" /></cc:Work></rdf:RDF></metadata><sodipodi:namedview
     pagecolor="#ffffff"
     bordercolor="#666666"
     borderopacity="1"
     objecttolerance="10"
     gridtolerance="10"
     guidetolerance="10"
     inkscape:pageopacity="0"
     inkscape:pageshadow="2"
     inkscape:window-width="922"
     inkscape:window-height="651"
     id="namedview145"
     showgrid="false"
     inkscape:zoom="4.4387755"
     inkscape:cx="39.2"
     inkscape:cy="9.1"
     inkscape:window-x="580"
     inkscape:window-y="164"
     inkscape:window-maximized="0"
     inkscape:current-layer="Ebene_1" /><g
     opacity="0.75"
     id="g3"><g
       id="g5"><g
         opacity="0"
         id="g7"><path
           fill="#3C3C3B"
           d="M76.8,7.1l-5-6.2C71.3,0.2,70-0.1,69.3,0C69.1,0,3,0,3,0C1.7,0,0.6,1.4,0.6,3v12.8c0,1.6,1.1,3,2.4,3     c0,0,66.1,0.1,66.3,0c0.7,0.1,2-0.3,2.6-1l5-6.2C77.8,10.3,77.8,8.4,76.8,7.1z"
           id="path9" /></g></g><g
       opacity="5.454500e-02"
       id="g11"><path
         fill="#3C3C3B"
         d="M76.8,7.1l-5-6.1C71.2,0.2,70-0.1,69.2,0C69.1,0,3,0,3,0C1.7,0,0.6,1.4,0.6,3v12.7c0,1.6,1.1,3,2.4,3    c0,0,66,0.1,66.2,0c0.7,0.1,2-0.3,2.6-1l5-6.1C77.8,10.3,77.8,8.3,76.8,7.1z"
         id="path13" /></g><g
       opacity="0.1091"
       id="g15"><path
         fill="#3C3C3B"
         d="M76.7,7.1l-5-6.1c-0.6-0.7-1.8-1.1-2.6-0.9C69,0,3,0,3,0C1.7,0,0.6,1.3,0.6,3v12.7c0,1.6,1.1,2.9,2.4,2.9    c0,0,66,0.1,66.2,0c0.7,0.1,2-0.3,2.6-1l5-6.1C77.7,10.3,77.7,8.3,76.7,7.1z"
         id="path17" /></g><g
       opacity="0.1636"
       id="g19"><path
         fill="#3C3C3B"
         d="M76.7,7l-5-6.1c-0.6-0.7-1.8-1.1-2.6-0.9C69,0,3,0,3,0C1.7,0,0.6,1.3,0.6,3v12.6c0,1.6,1.1,2.9,2.4,2.9    c0,0,65.9,0.1,66.1,0c0.7,0.1,2-0.3,2.6-1l5-6.1C77.7,10.2,77.7,8.3,76.7,7z"
         id="path21" /></g><g
       opacity="0.2182"
       id="g23"><path
         fill="#3C3C3B"
         d="M76.6,7l-5-6.1C71,0.2,69.8-0.1,69.1,0C68.9,0,3,0,3,0C1.7,0,0.6,1.3,0.6,2.9v12.6c0,1.6,1.1,2.9,2.4,2.9    c0,0,65.9,0.1,66.1,0c0.7,0.1,2-0.3,2.6-1l5-6.1C77.6,10.2,77.6,8.2,76.6,7z"
         id="path25" /></g><g
       opacity="0.2727"
       id="g27"><path
         fill="#3C3C3B"
         d="M76.5,7l-5-6C71,0.2,69.8-0.1,69,0C68.9,0,3,0,3,0C1.7,0,0.6,1.3,0.6,2.9v12.5c0,1.6,1.1,2.9,2.4,2.9    c0,0,65.8,0.1,66,0c0.7,0.1,2-0.3,2.6-1l5-6C77.5,10.1,77.5,8.2,76.5,7z"
         id="path29" /></g><g
       opacity="0.3273"
       id="g31"><path
         fill="#3C3C3B"
         d="M76.5,7l-5-6c-0.6-0.7-1.8-1-2.6-0.9C68.8,0,3,0,3,0C1.7,0,0.6,1.3,0.6,2.9v12.5c0,1.6,1.1,2.9,2.4,2.9    c0,0,65.8,0.1,66,0c0.7,0.1,2-0.3,2.6-1l5-6C77.5,10.1,77.5,8.2,76.5,7z"
         id="path33" /></g><g
       opacity="0.3818"
       id="g35"><path
         fill="#3C3C3B"
         d="M76.4,6.9l-5-6c-0.6-0.7-1.8-1-2.6-0.9C68.8,0,3,0,3,0C1.7,0,0.6,1.3,0.6,2.9v12.4c0,1.6,1.1,2.9,2.4,2.9    c0,0,65.7,0.1,65.9,0c0.7,0.1,2-0.3,2.6-1l5-6C77.4,10.1,77.4,8.1,76.4,6.9z"
         id="path37" /></g><g
       opacity="0.4364"
       id="g39"><path
         fill="#3C3C3B"
         d="M76.4,6.9l-5-6c-0.6-0.7-1.8-1-2.6-0.9C68.7,0,3,0,3,0C1.7,0,0.6,1.3,0.6,2.9v12.4c0,1.6,1.1,2.9,2.4,2.9    c0,0,65.7,0.1,65.9,0c0.7,0.1,2-0.3,2.6-1l5-6C77.4,10,77.4,8.1,76.4,6.9z"
         id="path41" /></g><g
       opacity="0.4909"
       id="g43"><path
         fill="#3C3C3B"
         d="M76.3,6.9l-5-5.9c-0.6-0.7-1.8-1-2.6-0.9C68.7,0,3,0,3,0C1.7,0,0.6,1.3,0.6,2.9v12.3    c0,1.6,1.1,2.9,2.4,2.9c0,0,65.6,0.1,65.8,0c0.7,0.1,2-0.3,2.6-1l5-5.9C77.3,10,77.3,8.1,76.3,6.9z"
         id="path45" /></g><g
       opacity="0.5455"
       id="g47"><path
         fill="#3C3C3B"
         d="M76.3,6.8l-4.9-5.9c-0.6-0.7-1.8-1-2.6-0.9C68.6,0,3,0,3,0C1.7,0,0.6,1.3,0.6,2.9v12.3    C0.6,16.7,1.7,18,3,18c0,0,65.6,0.1,65.8,0c0.7,0.1,2-0.3,2.6-1l4.9-5.9C77.2,9.9,77.2,8,76.3,6.8z"
         id="path49" /></g><g
       id="g51"><g
         opacity="0.6"
         id="g53"><path
           fill="#3C3C3B"
           d="M76.2,6.8l-4.9-5.9c-0.6-0.7-1.8-1-2.6-0.9C68.6,0,3,0,3,0C1.7,0,0.6,1.3,0.6,2.9v12.2     c0,1.6,1.1,2.8,2.4,2.8c0,0,65.5,0.1,65.7,0c0.7,0.1,2-0.3,2.6-1l4.9-5.9C77.2,9.9,77.2,8,76.2,6.8z"
           id="path55" /></g></g></g><g
     id="g57"><linearGradient
       id="SVGID_1_"
       gradientUnits="userSpaceOnUse"
       x1="38.7753"
       y1="0.4317"
       x2="38.7753"
       y2="17.1277"><stop
         offset="0"
         style="stop-color:#C7E281"
         id="stop60" /><stop
         offset="1"
         style="stop-color:#92B54D"
         id="stop62" /></linearGradient><path
       fill="url(#SVGID_1_)"
       d="M51.6,17.7c-19.5,0-48.6,0-48.6,0c-1.2,0-2.2-1.2-2.2-2.6V2.9c0-1.4,1-2.6,2.2-2.6   c0,0,29.1,0,48.6,0c13.9,0,17,0,17.1,0c0.1,0,0.3,0,0.4,0c0.7,0,1.6,0.3,2.1,0.8L76.1,7c0.9,1.1,0.9,2.8,0,3.9l-4.9,5.9   c-0.4,0.5-1.6,0.9-2.3,0.9l-0.1,0C68.5,17.7,65.4,17.7,51.6,17.7z"
       id="path64" /><g
       id="g66"><path
         fill="#667E36"
         d="M69.1,0.5c0.6,0,1.5,0.3,1.9,0.8l4.9,5.9c0.8,1,0.8,2.6,0,3.6L71,16.6c-0.4,0.5-1.5,0.8-2.1,0.8    c0,0-0.1,0-0.1,0l-0.1,0l0,0c-0.4,0-3.8,0-17.1,0c-19.5,0-48.6,0-48.6,0c-1.1,0-2-1-2-2.3V2.9c0-1.3,0.9-2.3,2-2.3    c0,0,29.1,0,48.6,0c13.4,0,16.7,0,17.1,0l0,0l0.1,0C68.9,0.5,69,0.5,69.1,0.5"
         id="path68" /></g></g><defs
     id="defs70"><filter
       id="Adobe_OpacityMaskFilter"
       filterUnits="userSpaceOnUse"
       x="1"
       y="0.5"
       width="75.5"
       height="17"><feFlood
         style="flood-color:white;flood-opacity:1"
         result="back"
         id="feFlood73" /><feBlend
         in="SourceGraphic"
         in2="back"
         mode="normal"
         id="feBlend75" /></filter></defs><mask
     maskUnits="userSpaceOnUse"
     x="1"
     y="0.5"
     width="75.5"
     height="17"
     id="SVGID_2_"><g
       filter="url(#Adobe_OpacityMaskFilter)"
       id="g78"><defs
         id="defs80"><filter
           id="Adobe_OpacityMaskFilter_1_"
           filterUnits="userSpaceOnUse"
           x="1"
           y="0.5"
           width="75.5"
           height="17"><feFlood
             style="flood-color:white;flood-opacity:1"
             result="back"
             id="feFlood83" /><feBlend
             in="SourceGraphic"
             in2="back"
             mode="normal"
             id="feBlend85" /></filter></defs><mask
         maskUnits="userSpaceOnUse"
         x="1"
         y="0.5"
         width="75.5"
         height="17"
         id="mask87"><g
           filter="url(#Adobe_OpacityMaskFilter_1_)"
           id="g89" /></mask><linearGradient
         id="SVGID_3_"
         gradientUnits="userSpaceOnUse"
         x1="38.7754"
         y1="0.6869"
         x2="38.7754"
         y2="17.2172"><stop
           offset="0"
           style="stop-color:#FFFFFF"
           id="stop92" /><stop
           offset="1"
           style="stop-color:#000000"
           id="stop94" /></linearGradient><path
         mask="url(#SVGID_2_)"
         fill="url(#SVGID_3_)"
         d="M69.1,1c0.5,0,1.3,0.2,1.6,0.6l4.9,5.9c0.7,0.8,0.7,2.1,0,2.8l-4.9,5.9    c-0.3,0.3-1.2,0.7-1.8,0.7c0,0-0.1,0-0.1,0l-0.1,0l-0.1,0l0,0c-0.5,0-4,0-17,0c-19.4,0-48.3,0-48.6,0c-0.8,0-1.5-0.8-1.5-1.8V2.9    C1.4,1.9,2.1,1,3,1c0,0,29.1,0,48.6,0c14.2,0,16.8,0,17,0l0.1,0l0.1,0l0.1,0C68.9,1,69,1,69.1,1 M69.1,0.5c-0.1,0-0.2,0-0.3,0    l-0.1,0l0,0c-0.3,0-3.6,0-17.1,0C32.1,0.5,3,0.5,3,0.5c-1.1,0-2,1-2,2.3v12.2c0,1.3,0.9,2.3,2,2.3c0,0,29.1,0,48.6,0    c13.3,0,16.7,0,17.1,0l0,0l0.1,0c0,0,0.1,0,0.1,0c0.7,0,1.7-0.4,2.1-0.8l4.9-5.9c0.8-1,0.8-2.6,0-3.6L71,1.3    C70.5,0.8,69.7,0.5,69.1,0.5L69.1,0.5z"
         id="path96" /></g></mask><linearGradient
     id="SVGID_4_"
     gradientUnits="userSpaceOnUse"
     x1="38.7754"
     y1="0.6869"
     x2="38.7754"
     y2="17.2172"
     gradientTransform="translate(-13.967816,-25.006896)"><stop
       offset="0"
       style="stop-color:#FFFFFF"
       id="stop99" /><stop
       offset="1"
       style="stop-color:#FFFFFF"
       id="stop101" /></linearGradient><g
     id="g105"><path
       fill-rule="evenodd"
       clip-rule="evenodd"
       fill="#FFFFFF"
       d="M69.7,8.3c0.2,0.1,0.4-0.1,0.5-0.3c0.1-0.2,0-0.5-0.3-0.5   c-0.2,0-0.4,0.1-0.5,0.2C69.3,7.9,69.4,8.2,69.7,8.3z"
       id="path107" /><path
       fill-rule="evenodd"
       clip-rule="evenodd"
       fill="#FFFFFF"
       d="M68.9,7.6c0.3,0.1,0.5-0.1,0.6-0.4C69.6,7,69.4,6.7,69,6.7   c-0.1,0-0.3,0.1-0.3,0.3C68.5,7.2,68.6,7.5,68.9,7.6z"
       id="path109" /><path
       fill-rule="evenodd"
       clip-rule="evenodd"
       fill="#FFFFFF"
       d="M68.1,7.1c0.3,0,0.4-0.2,0.5-0.4C68.7,6.4,68.5,6,68.2,6   c-0.3,0-0.5,0.1-0.5,0.3C67.5,6.7,67.6,7.1,68.1,7.1z"
       id="path111" /><path
       fill-rule="evenodd"
       clip-rule="evenodd"
       fill="#FFFFFF"
       d="M70,9.8C70,9.8,70,9.8,70,9.8C70,9.8,70,9.8,70,9.8z"
       id="path113" /><path
       fill-rule="evenodd"
       clip-rule="evenodd"
       fill="#FFFFFF"
       d="M70,9.6C70,9.6,70,9.6,70,9.6L70,9.6z"
       id="path115" /><path
       fill-rule="evenodd"
       clip-rule="evenodd"
       fill="#FFFFFF"
       d="M70,9.7C70,9.7,70,9.7,70,9.7C70,9.7,70,9.7,70,9.7z"
       id="path117" /><path
       fill-rule="evenodd"
       clip-rule="evenodd"
       fill="#FFFFFF"
       d="M70,9.7C70,9.7,70,9.7,70,9.7C70,9.7,70,9.7,70,9.7   C70,9.7,70,9.7,70,9.7c-0.2-1.3-2-2.8-3.3-2.4c-1.8,0.7-0.4,3.4-1.1,4.8c-0.4,0.7-1,1.3-0.8,2.2c0.2,1.2,1.9,1.1,2.5,0   C67.9,13.1,70.3,11.2,70,9.7C70,9.7,70,9.7,70,9.7z"
       id="path119" /><path
       fill-rule="evenodd"
       clip-rule="evenodd"
       fill="#FFFFFF"
       d="M66.7,7c0.5-0.1,0.7-0.5,0.7-0.9c0-0.4-0.2-0.9-0.7-1   c-0.5-0.1-0.8,0.3-0.9,0.8C65.8,6.5,66,7.1,66.7,7z"
       id="path121" /><path
       fill-rule="evenodd"
       clip-rule="evenodd"
       fill="#FFFFFF"
       d="M70.1,8.4c-0.1,0-0.2,0.2-0.2,0.4C70,8.9,70,9,70.2,9   c0.3,0,0.4-0.3,0.3-0.5C70.5,8.4,70.4,8.3,70.1,8.4z"
       id="path123" /><path
       fill-rule="evenodd"
       clip-rule="evenodd"
       fill="#FFFFFF"
       d="M58.2,4.9c0.3-0.1,0.4-0.4,0.3-0.6C58.4,4.1,58.2,4,58,4   c-0.3,0-0.3,0.3-0.3,0.5C57.8,4.7,57.9,4.9,58.2,4.9z"
       id="path125" /><path
       fill-rule="evenodd"
       clip-rule="evenodd"
       fill="#FFFFFF"
       d="M59,4.2c0.3-0.1,0.4-0.3,0.3-0.5c0-0.2-0.2-0.4-0.4-0.4   c-0.4-0.1-0.6,0.1-0.6,0.4C58.4,4,58.6,4.3,59,4.2z"
       id="path127" /><path
       fill-rule="evenodd"
       clip-rule="evenodd"
       fill="#FFFFFF"
       d="M59.8,3.7c0.5,0.1,0.6-0.4,0.5-0.7c-0.1-0.2-0.2-0.4-0.5-0.4   c-0.3,0-0.5,0.3-0.5,0.5C59.4,3.4,59.5,3.6,59.8,3.7z"
       id="path129" /><path
       fill-rule="evenodd"
       clip-rule="evenodd"
       fill="#FFFFFF"
       d="M61.2,4.1c-1.3-0.6-3.2,0.9-3.4,2.2c-0.3,1.5,1.9,3.6,2.5,4.9   c0.5,1.1,2.2,1.3,2.5,0.1c0.2-0.9-0.4-1.5-0.7-2.3C61.4,7.5,63,4.8,61.2,4.1z"
       id="path131" /><path
       fill-rule="evenodd"
       clip-rule="evenodd"
       fill="#FFFFFF"
       d="M57.8,6.3C57.8,6.3,57.8,6.3,57.8,6.3C57.8,6.3,57.8,6.3,57.8,6.3   z"
       id="path133" /><path
       fill-rule="evenodd"
       clip-rule="evenodd"
       fill="#FFFFFF"
       d="M57.8,6.1C57.8,6.1,57.8,6.1,57.8,6.1L57.8,6.1z"
       id="path135" /><path
       fill-rule="evenodd"
       clip-rule="evenodd"
       fill="#FFFFFF"
       d="M57.8,6.2C57.8,6.2,57.8,6.2,57.8,6.2C57.8,6.3,57.8,6.2,57.8,6.2   z"
       id="path137" /><path
       fill-rule="evenodd"
       clip-rule="evenodd"
       fill="#FFFFFF"
       d="M57.8,6.2C57.8,6.2,57.8,6.2,57.8,6.2C57.8,6.2,57.8,6.2,57.8,6.2   C57.8,6.2,57.8,6.2,57.8,6.2z"
       id="path139" /><path
       fill-rule="evenodd"
       clip-rule="evenodd"
       fill="#FFFFFF"
       d="M61.3,3.7c0.6,0.1,0.9-0.5,0.9-1c0-0.5-0.3-0.9-0.8-0.9   c-0.5,0.1-0.7,0.4-0.8,0.9C60.5,3.1,60.8,3.6,61.3,3.7z"
       id="path141" /><path
       fill-rule="evenodd"
       clip-rule="evenodd"
       fill="#FFFFFF"
       d="M57.7,4.9c-0.3-0.1-0.5,0-0.5,0.2c0,0.2,0.1,0.4,0.3,0.4   c0.2,0,0.3-0.2,0.3-0.3C57.9,5.1,57.8,4.9,57.7,4.9z"
       id="path143" /></g></svg>
