<?xml version="1.0" encoding="utf-8"?>
<!-- Generator: Adobe Illustrator 18.1.0, SVG Export Plug-In . SVG Version: 6.00 Build 0)  -->
<!DOCTYPE svg PUBLIC "-//W3C//DTD SVG 1.1//EN" "http://www.w3.org/Graphics/SVG/1.1/DTD/svg11.dtd">
<svg version="1.1" id="Layer_1" xmlns="http://www.w3.org/2000/svg" xmlns:xlink="http://www.w3.org/1999/xlink" x="0px" y="0px"
	 viewBox="0 0 197.3 40.6" enable-background="new 0 0 197.3 40.6" xml:space="preserve">
<path fill="#4D4D4D" d="M197.3,36.9c0,2-1.9,3.6-4.2,3.6H4.2c-2.3,0-4.2-1.6-4.2-3.6V4.6C0,2.6,1.9,1,4.2,1h188.9
	c2.3,0,4.2,1.6,4.2,3.6V36.9z"/>
<path fill="#90B743" d="M197.3,35.9c0,2-1.9,3.6-4.2,3.6H4.2c-2.3,0-4.2-1.6-4.2-3.6V3.6C0,1.6,1.9,0,4.2,0h188.9
	c2.3,0,4.2,1.6,4.2,3.6V35.9z"/>
<path fill="#87B450" d="M136.2,14.4C81.9,14.4,33.1,22.8,0,36.2c0.1,1.9,1.9,3.4,4.2,3.4h188.9c2.3,0,4.2-1.6,4.2-3.6V18.1
	C178.2,15.7,157.7,14.4,136.2,14.4z"/>
</svg>
