<?xml version="1.0" encoding="UTF-8" standalone="no"?>
<!-- Generator: Adobe Illustrator 18.0.0, SVG Export Plug-In . SVG Version: 6.00 Build 0)  -->

<svg
   xmlns:dc="http://purl.org/dc/elements/1.1/"
   xmlns:cc="http://creativecommons.org/ns#"
   xmlns:rdf="http://www.w3.org/1999/02/22-rdf-syntax-ns#"
   xmlns:svg="http://www.w3.org/2000/svg"
   xmlns="http://www.w3.org/2000/svg"
   xmlns:sodipodi="http://sodipodi.sourceforge.net/DTD/sodipodi-0.dtd"
   xmlns:inkscape="http://www.inkscape.org/namespaces/inkscape"
   version="1.1"
   id="Layer_1"
   x="0px"
   y="0px"
   viewBox="0 0 841.9 172.9"
   enable-background="new 0 0 841.9 595.3"
   xml:space="preserve"
   inkscape:version="0.91 r13725"
   sodipodi:docname="btn_dark_background.svg"
   width="841.90002"
   height="172.89999"><metadata
     id="metadata13"><rdf:RDF><cc:Work
         rdf:about=""><dc:format>image/svg+xml</dc:format><dc:type
           rdf:resource="http://purl.org/dc/dcmitype/StillImage" /><dc:title></dc:title></cc:Work></rdf:RDF></metadata><defs
     id="defs11" /><sodipodi:namedview
     pagecolor="#ffffff"
     bordercolor="#666666"
     borderopacity="1"
     objecttolerance="10"
     gridtolerance="10"
     guidetolerance="10"
     inkscape:pageopacity="0"
     inkscape:pageshadow="2"
     inkscape:window-width="1920"
     inkscape:window-height="1025"
     id="namedview9"
     showgrid="false"
     fit-margin-top="0"
     fit-margin-left="0"
     fit-margin-right="0"
     fit-margin-bottom="0"
     inkscape:zoom="0.39643878"
     inkscape:cx="544.55043"
     inkscape:cy="86.250006"
     inkscape:window-x="0"
     inkscape:window-y="27"
     inkscape:window-maximized="1"
     inkscape:current-layer="Layer_1" /><path
     d="m 841.9,157.5 c 0,8.5 -8.1,15.4 -17.9,15.4 l -806,0 C 8.1,172.8 0,166 0,157.5 L 0,19.6 C 0,11.1 8.1,4.2 17.9,4.2 l 806,0 c 9.8,0 17.9,6.8 17.9,15.4 l 0.1,137.9 0,0 z"
     id="path3"
     inkscape:connector-curvature="0"
     style="fill:#383836" /><path
     d="m 841.9,153.2 c 0,8.5 -8.1,15.4 -17.9,15.4 l -806,0 C 8.2,168.6 0.1,161.8 0.1,153.2 L 0.1,15.4 C 0.1,6.9 8.2,0 18,0 l 806,0 c 9.8,0 17.9,6.8 17.9,15.4 l 0,137.8 0,0 z"
     id="path5"
     inkscape:connector-curvature="0"
     style="fill:#4c5033" /><path
     d="M 581.2,61.5 C 349.5,61.5 141.3,97.3 0,154.5 0.4,162.6 8.1,169 17.9,169 l 806,0 c 9.8,0 17.9,-6.8 17.9,-15.4 l 0,-76.4 C 760.4,67 672.9,61.5 581.2,61.5 Z"
     id="path7"
     inkscape:connector-curvature="0"
     style="fill:#464a2f" /></svg>
