<?xml version="1.0" encoding="utf-8"?>
<!-- Generator: Adobe Illustrator 18.1.0, SVG Export Plug-In . SVG Version: 6.00 Build 0)  -->
<!DOCTYPE svg PUBLIC "-//W3C//DTD SVG 1.1//EN" "http://www.w3.org/Graphics/SVG/1.1/DTD/svg11.dtd">
<svg version="1.1" id="Layer_1" xmlns="http://www.w3.org/2000/svg" xmlns:xlink="http://www.w3.org/1999/xlink" x="0px" y="0px"
	 viewBox="0 0 400 43" enable-background="new 0 0 400 43" xml:space="preserve">
<g id="Shadow_2_">
	<g opacity="0.3">
		<path fill="#FFFFFF" d="M0,44.6V15.4c0-5.5,4.5-10,10-10h380c5.5,0,10,4.5,10,10v29.1C255,31.6,132.5,32.5,0,44.6z"/>
		<path fill="#FBFBFB" d="M0.4,15.3c0-5.4,4.7-9.8,10.1-9.8h379.1c5.4,0,10.1,4.4,10.1,9.8v29.1c-142.2-12.7-269.4-11.9-399.3,0
			V15.3z"/>
		<path fill="#F6F6F6" d="M0.7,15.1c0-5.3,4.9-9.6,10.2-9.6h378.3c5.3,0,10.2,4.3,10.2,9.6v29.1C260,31.8,128,32.6,0.7,44.2V15.1z"
			/>
		<path fill="#F2F2F2" d="M1.1,14.9c0-5.2,5-9.4,10.2-9.4h377.4c5.2,0,10.2,4.2,10.2,9.4V44C262.5,31.8,125.8,32.6,1.1,44V14.9z"/>
		<path fill="#EEEDEE" d="M1.4,14.7c0-5.1,5.2-9.2,10.3-9.2h376.5c5.1,0,10.3,4.1,10.3,9.2v29.2c-133.6-11.9-275-11.2-397.1,0V14.7z
			"/>
		<path fill="#E9E9E9" d="M1.8,14.5c0-5,5.4-9,10.4-9h375.7c5,0,10.4,4.1,10.4,9v29.2C267.4,32,121.3,32.7,1.8,43.7V14.5z"/>
		<path fill="#E5E5E5" d="M2.1,14.3c0-4.9,5.6-8.8,10.5-8.8h374.8c4.9,0,10.5,4,10.5,8.8v29.2C269.9,32.1,119,32.8,2.1,43.5V14.3z"
			/>
		<path fill="#E1E0E0" d="M2.5,14.1c0-4.7,5.8-8.6,10.5-8.6H387c4.7,0,10.5,3.9,10.5,8.6v29.2c-125.1-11.2-280.7-10.4-395,0V14.1z"
			/>
		<path fill="#DCDCDC" d="M2.9,14c0-4.6,6-8.4,10.6-8.4h373.1c4.6,0,10.6,3.8,10.6,8.4v29.2c-122.3-10.9-282.6-10.2-394.3,0V14z"/>
		<path fill="#D8D7D8" d="M3.2,13.8c0-4.5,6.1-8.2,10.7-8.2h372.2c4.5,0,10.7,3.7,10.7,8.2V43C277.4,32.3,112.3,33,3.2,43V13.8z"/>
		<path fill="#D4D3D3" d="M3.6,13.6c0-4.4,6.3-8,10.8-8h371.4c4.4,0,10.8,3.6,10.8,8v29.2C279.9,32.4,110.1,33,3.6,42.8V13.6z"/>
		<path fill="#CFCECF" d="M3.9,13.4c0-4.3,6.5-7.8,10.8-7.8h370.5c4.3,0,10.8,3.5,10.8,7.8v29.2c-113.7-10.2-288.2-9.5-392.1,0V13.4
			z"/>
		<path fill="#CBCACB" d="M4.3,13.2C4.3,9,11,5.6,15.2,5.6h369.6c4.2,0,10.9,3.4,10.9,7.6v29.2c-110.9-9.9-290.1-9.3-391.4,0V13.2z"
			/>
		<path fill="#C7C6C6" d="M4.6,13c0-4.1,6.9-7.5,11-7.5h368.8c4.1,0,11,3.4,11,7.5v29.2c-108-9.6-292-9-390.7,0V13z"/>
		<path fill="#C2C1C2" d="M5,12.8c0-4,7.1-7.3,11.1-7.3h367.9c4,0,11.1,3.3,11.1,7.3v29.2c-105.2-9.4-293.9-8.8-390,0V12.8z"/>
		<path fill="#BEBDBD" d="M5.3,12.7c0-3.9,7.2-7.1,11.1-7.1h367c3.9,0,11.1,3.2,11.1,7.1v29.2c-102.4-9.1-295.8-8.5-389.3,0V12.7z"
			/>
		<path fill="#BAB8B9" d="M5.7,12.5c0-3.8,7.4-6.9,11.2-6.9h366.2c3.8,0,11.2,3.1,11.2,6.9v29.2c-99.5-8.9-297.7-8.3-388.6,0V12.5z"
			/>
		<path fill="#B5B4B5" d="M6.1,12.3c0-3.7,7.6-6.7,11.3-6.7h365.3c3.7,0,11.3,3,11.3,6.7v29.3c-96.7-8.6-299.5-8.1-387.9,0V12.3z"/>
		<path fill="#B1B0B0" d="M6.4,12.1c0-3.6,7.8-6.5,11.4-6.5h364.4c3.6,0,11.4,2.9,11.4,6.5v29.3c-93.8-8.4-301.4-7.8-387.2,0V12.1z"
			/>
		<path fill="#ADABAC" d="M6.8,11.9c0-3.5,8-6.3,11.4-6.3h363.6c3.5,0,11.4,2.8,11.4,6.3v29.3c-91-8.1-303.3-7.6-386.4,0V11.9z"/>
		<path fill="#A8A7A8" d="M7.1,11.7c0-3.3,8.2-6.1,11.5-6.1h362.7c3.3,0,11.5,2.7,11.5,6.1V41c-88.1-7.9-305.2-7.4-385.7,0V11.7z"/>
		<path fill="#A4A2A3" d="M7.5,11.5c0-3.2,8.3-5.9,11.6-5.9h361.9c3.2,0,11.6,2.6,11.6,5.9v29.3c-85.3-7.6-307.1-7.1-385,0V11.5z"/>
		<path fill="#A09E9F" d="M7.8,11.4c0-3.1,8.5-5.7,11.7-5.7h361c3.1,0,11.7,2.6,11.7,5.7v29.3c-82.4-7.4-309-6.9-384.3,0V11.4z"/>
		<path fill="#9B9A9A" d="M8.2,11.2c0-3,8.7-5.5,11.7-5.5h360.1c3,0,11.7,2.5,11.7,5.5v29.3c-79.6-7.1-310.8-6.6-383.6,0V11.2z"/>
		<path fill="#979596" d="M8.6,11c0-2.9,8.9-5.3,11.8-5.3h359.3c2.9,0,11.8,2.4,11.8,5.3v29.3c-76.8-6.9-312.7-6.4-382.9,0V11z"/>
		<path fill="#939192" d="M8.9,10.8C8.9,8,18,5.7,20.8,5.7h358.4c2.8,0,11.9,2.3,11.9,5.1v29.3c-73.9-6.6-314.6-6.2-382.2,0V10.8z"
			/>
		<path fill="#8E8C8D" d="M9.3,10.6c0-2.7,9.3-4.9,12-4.9h357.5c2.7,0,12,2.2,12,4.9v29.3c-71.1-6.3-316.5-5.9-381.4,0V10.6z"/>
		<path fill="#8A8889" d="M9.6,10.4c0-2.6,9.4-4.7,12-4.7h356.7c2.6,0,12,2.1,12,4.7v29.3c-68.2-6.1-318.4-5.7-380.7,0V10.4z"/>
		<path fill="#868385" d="M10,10.2c0-2.5,9.6-4.5,12.1-4.5h355.8c2.5,0,12.1,2,12.1,4.5v29.3c-65.4-5.8-320.3-5.5-380,0V10.2z"/>
		<path fill="#817F80" d="M10.3,10.1c0-2.4,9.8-4.3,12.2-4.3h354.9c2.4,0,12.2,1.9,12.2,4.3v29.3c-62.5-5.6-322.2-5.2-379.3,0V10.1z
			"/>
		<path fill="#7D7B7C" d="M10.7,9.9c0-2.3,10-4.1,12.3-4.1H377c2.3,0,12.3,1.9,12.3,4.1v29.4c-59.7-5.3-324-5-378.6,0V9.9z"/>
		<path fill="#797677" d="M11.1,9.7c0-2.2,10.2-3.9,12.3-3.9h353.2c2.2,0,12.3,1.8,12.3,3.9V39C332.1,34,63,34.3,11.1,39V9.7z"/>
		<path fill="#747273" d="M11.4,9.5c0-2,10.4-3.7,12.4-3.7h352.3c2,0,12.4,1.7,12.4,3.7v29.4c-54-4.8-327.8-4.5-377.2,0V9.5z"/>
		<path fill="#706D6F" d="M11.8,9.3c0-1.9,10.5-3.5,12.5-3.5h351.5c1.9,0,12.5,1.6,12.5,3.5v29.4c-51.2-4.6-329.7-4.3-376.5,0V9.3z"
			/>
		<path fill="#6C696A" d="M12.1,9.1c0-1.8,10.7-3.3,12.6-3.3h350.6c1.8,0,12.6,1.5,12.6,3.3v29.4c-48.3-4.3-331.6-4-375.7,0V9.1z"/>
		<path fill="#676566" d="M12.5,8.9c0-1.7,10.9-3.1,12.6-3.1h349.8c1.7,0,12.6,1.4,12.6,3.1v29.4c-45.5-4.1-333.5-3.8-375,0V8.9z"/>
		<path fill="#636062" d="M12.8,8.8c0-1.6,11.1-2.9,12.7-2.9h348.9c1.6,0,12.7,1.3,12.7,2.9v29.4c-42.6-3.8-335.3-3.6-374.3,0V8.8z"
			/>
		<path fill="#5F5C5D" d="M13.2,8.6c0-1.5,11.3-2.7,12.8-2.7h348c1.5,0,12.8,1.2,12.8,2.7V38C347,34.4,49.6,34.7,13.2,38V8.6z"/>
		<path fill="#5A5759" d="M13.5,8.4C13.5,7,25,5.8,26.4,5.8h347.2c1.4,0,12.9,1.1,12.9,2.5v29.4c-37-3.3-339.1-3.1-372.9,0V8.4z"/>
		<path fill="#565354" d="M13.9,8.2c0-1.3,11.6-2.4,12.9-2.4h346.3c1.3,0,12.9,1.1,12.9,2.4v29.4c-34.1-3-341-2.8-372.2,0V8.2z"/>
		<path fill="#524F50" d="M14.3,8c0-1.2,11.8-2.2,13-2.2h345.4c1.2,0,13,1,13,2.2v29.4c-31.3-2.8-342.9-2.6-371.5,0V8z"/>
		<path fill="#4D4A4C" d="M14.6,7.8c0-1.1,12-2,13.1-2h344.6c1.1,0,13.1,0.9,13.1,2v29.4c-28.4-2.5-344.8-2.4-370.8,0V7.8z"/>
		<path fill="#494647" d="M15,7.6c0-1,12.2-1.8,13.2-1.8h343.7c1,0,13.2,0.8,13.2,1.8v29.4c-25.6-2.3-346.7-2.1-370,0V7.6z"/>
		<path fill="#454143" d="M15.3,7.5c0-0.9,12.4-1.6,13.2-1.6h342.8c0.9,0,13.2,0.7,13.2,1.6v29.4c-22.7-2-348.5-1.9-369.3,0V7.5z"/>
		<path fill="#403D3F" d="M15.7,7.3c0-0.8,12.6-1.4,13.3-1.4h342c0.8,0,13.3,0.6,13.3,1.4v29.5c-19.9-1.8-350.4-1.7-368.6,0V7.3z"/>
		<path fill="#3C383A" d="M16,7.1c0-0.6,12.7-1.2,13.4-1.2h341.1c0.6,0,13.4,0.5,13.4,1.2v29.5C366.9,35,31.6,35.1,16,36.6V7.1z"/>
		<path fill="#383436" d="M16.4,6.9c0-0.5,12.9-1,13.5-1h340.3c0.5,0,13.5,0.4,13.5,1v29.5c-14.2-1.3-354.2-1.2-367.2,0V6.9z"/>
		<path fill="#333031" d="M16.8,6.7c0-0.4,13.1-0.8,13.5-0.8h339.4c0.4,0,13.5,0.4,13.5,0.8v29.5c-11.4-1-356.1-0.9-366.5,0V6.7z"/>
		<path fill="#2F2B2D" d="M17.1,6.5c0-0.3,13.3-0.6,13.6-0.6h338.5c0.3,0,13.6,0.3,13.6,0.6V36c-8.5-0.8-358-0.7-365.8,0V6.5z"/>
		<path fill="#2B2729" d="M17.5,6.3C17.5,6.1,30.9,6,31.2,6h337.7c0.2,0,13.7,0.2,13.7,0.4v29.5c-5.7-0.5-359.8-0.5-365,0V6.3z"/>
		<path fill="#262224" d="M17.8,6.2C17.8,6.1,31.5,6,31.6,6h336.8c0.1,0,13.8,0.1,13.8,0.2v29.5c-2.8-0.3-361.7-0.2-364.3,0V6.2z"/>
		<rect x="18.2" y="6" fill="#221E20" width="363.6" height="29.5"/>
	</g>
	<g opacity="0.8">
		<path fill="#FFFFFF" d="M10.9,40l3.8-25.9c0.6-5.5,5.6-9.9,11.1-9.9h350.9c5.5,0,10.4,4.5,10.8,10l2.8,25.9
			C242.1,34.1,141.2,35.4,10.9,40z"/>
		<path fill="#FBFBFB" d="M14.8,14c0.6-5.4,5.7-9.7,11.1-9.7h350.6c5.4,0,10.5,4.4,10.9,9.8l2.8,25.9c-145.3-5.8-251.3-4.5-379.1,0
			L14.8,14z"/>
		<path fill="#F6F6F6" d="M14.8,13.9c0.6-5.3,5.9-9.6,11.2-9.6h350.2c5.3,0,10.5,4.3,11,9.6l2.7,25.9c-142.4-5.7-253.5-4.5-378.8,0
			L14.8,13.9z"/>
		<path fill="#F2F2F2" d="M14.9,13.8c0.5-5.1,6.1-9.4,11.3-9.4h349.9c5.2,0,10.6,4.2,11.1,9.4l2.7,25.8
			c-139.5-5.5-255.8-4.4-378.5,0L14.9,13.8z"/>
		<path fill="#EEEDEE" d="M15,13.7c0.5-5,6.3-9.2,11.4-9.2h349.5c5.1,0,10.7,4.1,11.1,9.2l2.6,25.8c-136.6-5.4-258-4.3-378.2,0
			L15,13.7z"/>
		<path fill="#E9E9E9" d="M15,13.6c0.5-4.9,6.5-9,11.5-9h349.2c5,0,10.8,4,11.2,9l2.6,25.8c-133.7-5.3-260.3-4.2-377.8,0L15,13.6z"
			/>
		<path fill="#E5E5E5" d="M15.1,13.5c0.5-4.8,6.7-8.8,11.6-8.8h348.8c4.9,0,10.9,4,11.3,8.8l2.5,25.8c-130.8-5.2-262.5-4.1-377.5,0
			L15.1,13.5z"/>
		<path fill="#E1E0E0" d="M15.2,13.4c0.5-4.7,6.9-8.6,11.6-8.6h348.5c4.7,0,11,3.9,11.4,8.6l2.5,25.8c-127.9-5.1-264.8-4-377.2,0
			L15.2,13.4z"/>
		<path fill="#DCDCDC" d="M15.2,13.3c0.5-4.6,7.1-8.4,11.7-8.4h348.1c4.6,0,11.1,3.8,11.5,8.4l2.4,25.8c-125-5-267-3.9-376.9,0
			L15.2,13.3z"/>
		<path fill="#D8D7D8" d="M15.3,13.2C15.8,8.7,22.6,5,27.1,5h347.8c4.5,0,11.2,3.7,11.6,8.2l2.3,25.8c-122.1-4.9-269.3-3.8-376.6,0
			L15.3,13.2z"/>
		<path fill="#D4D3D3" d="M15.4,13.1c0.5-4.4,7.5-8,11.9-8h347.4c4.4,0,11.3,3.6,11.7,8l2.3,25.8c-119.2-4.7-271.5-3.7-376.3,0
			L15.4,13.1z"/>
		<path fill="#CFCECF" d="M15.5,13c0.5-4.3,7.7-7.8,12-7.8h347.1c4.3,0,11.4,3.5,11.8,7.8l2.2,25.8c-116.2-4.6-273.8-3.6-376,0
			L15.5,13z"/>
		<path fill="#CBCACB" d="M15.5,12.9c0.4-4.2,7.9-7.6,12.1-7.6h346.7c4.2,0,11.5,3.4,11.8,7.6l2.2,25.8c-113.3-4.5-276-3.5-375.7,0
			L15.5,12.9z"/>
		<path fill="#C7C6C6" d="M15.6,12.8c0.4-4.1,8.1-7.4,12.1-7.4h346.3c4.1,0,11.6,3.3,11.9,7.4l2.1,25.8
			c-110.4-4.4-278.3-3.5-375.4,0L15.6,12.8z"/>
		<path fill="#C2C1C2" d="M15.7,12.7c0.4-4,8.2-7.2,12.2-7.2h346c4,0,11.7,3.3,12,7.2l2.1,25.8c-107.5-4.3-280.5-3.4-375.1,0
			L15.7,12.7z"/>
		<path fill="#BEBDBD" d="M15.7,12.6c0.4-3.9,8.4-7,12.3-7h345.6c3.9,0,11.8,3.2,12.1,7l2,25.8c-104.6-4.2-282.7-3.3-374.7,0
			L15.7,12.6z"/>
		<path fill="#BAB8B9" d="M15.8,12.5c0.4-3.8,8.6-6.8,12.4-6.8h345.3c3.8,0,11.9,3.1,12.2,6.8l1.9,25.8c-101.7-4-285-3.2-374.4,0
			L15.8,12.5z"/>
		<path fill="#B5B4B5" d="M15.9,12.4c0.4-3.6,8.8-6.6,12.5-6.6h344.9c3.7,0,12,3,12.3,6.6l1.9,25.8c-98.8-3.9-287.2-3.1-374.1,0
			L15.9,12.4z"/>
		<path fill="#B1B0B0" d="M15.9,12.3c0.4-3.5,9-6.4,12.6-6.4h344.6c3.6,0,12.1,2.9,12.4,6.5l1.8,25.8c-95.9-3.8-289.5-3-373.8,0
			L15.9,12.3z"/>
		<path fill="#ADABAC" d="M16,12.2c0.4-3.4,9.2-6.2,12.7-6.2h344.2c3.5,0,12.2,2.8,12.5,6.3l1.8,25.8c-93-3.7-291.7-2.9-373.5,0
			L16,12.2z"/>
		<path fill="#A8A7A8" d="M16.1,12.1c0.4-3.3,9.4-6,12.7-6h343.9c3.3,0,12.3,2.7,12.5,6.1l1.7,25.8c-90.1-3.6-294-2.8-373.2,0
			L16.1,12.1z"/>
		<path fill="#A4A2A3" d="M16.1,12c0.3-3.2,9.6-5.8,12.8-5.8h343.5c3.2,0,12.4,2.6,12.6,5.9l1.7,25.8c-87.2-3.5-296.2-2.7-372.9,0
			L16.1,12z"/>
		<path fill="#A09E9F" d="M16.2,11.9c0.3-3.1,9.8-5.7,12.9-5.7h343.2c3.1,0,12.5,2.6,12.7,5.7l1.6,25.7C302.4,34.3,88.2,35,14,37.6
			L16.2,11.9z"/>
		<path fill="#9B9A9A" d="M16.3,11.8c0.3-3,10-5.5,13-5.5h342.8c3,0,12.6,2.5,12.8,5.5l1.6,25.7c-81.4-3.2-300.7-2.5-372.3,0
			L16.3,11.8z"/>
		<path fill="#979596" d="M16.3,11.7c0.3-2.9,10.2-5.3,13.1-5.3h342.5c2.9,0,12.7,2.4,12.9,5.3l1.5,25.7c-78.5-3.1-303-2.5-372,0
			L16.3,11.7z"/>
		<path fill="#939192" d="M16.4,11.6c0.3-2.8,10.4-5.1,13.2-5.1h342.1c2.8,0,12.8,2.3,13,5.1l1.4,25.7c-75.6-3-305.2-2.4-371.7,0
			L16.4,11.6z"/>
		<path fill="#8E8C8D" d="M16.5,11.5C16.8,8.8,27,6.6,29.7,6.6h341.8c2.7,0,12.8,2.2,13.1,4.9l1.4,25.7c-72.7-2.9-307.5-2.3-371.3,0
			L16.5,11.5z"/>
		<path fill="#8A8889" d="M16.5,11.4c0.3-2.6,10.7-4.7,13.3-4.7h341.4c2.6,0,12.9,2.1,13.1,4.7l1.3,25.7c-69.7-2.8-309.7-2.2-371,0
			L16.5,11.4z"/>
		<path fill="#868385" d="M16.6,11.3C16.9,8.8,27.6,6.8,30,6.8h341.1c2.5,0,13,2,13.2,4.5l1.3,25.7c-66.8-2.7-312-2.1-370.7,0
			L16.6,11.3z"/>
		<path fill="#817F80" d="M16.7,11.2c0.2-2.4,11.1-4.3,13.5-4.3h340.7c2.4,0,13.1,1.9,13.3,4.3l1.2,25.7c-63.9-2.5-314.2-2-370.4,0
			L16.7,11.2z"/>
		<path fill="#7D7B7C" d="M16.8,11.1C17,8.8,28.1,7,30.3,7h340.4c2.3,0,13.2,1.8,13.4,4.1l1.2,25.7c-61-2.4-316.4-1.9-370.1,0
			L16.8,11.1z"/>
		<path fill="#797677" d="M16.8,11C17,8.8,28.3,7.1,30.5,7.1h340c2.2,0,13.3,1.8,13.5,3.9l1.1,25.7c-58.1-2.3-318.7-1.8-369.8,0
			L16.8,11z"/>
		<path fill="#747273" d="M16.9,10.9c0.2-2,11.7-3.7,13.8-3.7h339.7c2,0,13.4,1.7,13.6,3.7l1.1,25.7c-55.2-2.2-320.9-1.7-369.5,0
			L16.9,10.9z"/>
		<path fill="#706D6F" d="M17,10.8c0.2-1.9,11.9-3.5,13.8-3.5h339.3c1.9,0,13.5,1.6,13.7,3.5l1,25.7c-52.3-2.1-323.2-1.6-369.2,0
			L17,10.8z"/>
		<path fill="#6C696A" d="M17,10.7c0.2-1.8,12.1-3.3,13.9-3.3h339c1.8,0,13.6,1.5,13.8,3.3l0.9,25.7c-49.4-2-325.4-1.5-368.9,0
			L17,10.7z"/>
		<path fill="#676566" d="M17.1,10.6c0.2-1.7,12.3-3.1,14-3.1h338.6c1.7,0,13.7,1.4,13.8,3.1l0.9,25.7c-46.5-1.8-327.7-1.5-368.6,0
			L17.1,10.6z"/>
		<path fill="#636062" d="M17.2,10.5c0.2-1.6,12.5-2.9,14.1-2.9h338.3c1.6,0,13.8,1.3,13.9,2.9l0.8,25.7
			c-43.6-1.7-329.9-1.4-368.3,0L17.2,10.5z"/>
		<path fill="#5F5C5D" d="M17.2,10.4c0.2-1.5,12.7-2.7,14.2-2.7h337.9c1.5,0,13.9,1.2,14,2.7l0.8,25.7C343.4,34.4,52,34.8,16.2,36
			L17.2,10.4z"/>
		<path fill="#5A5759" d="M17.3,10.3c0.1-1.4,12.9-2.5,14.3-2.5h337.6c1.4,0,14,1.1,14.1,2.5l0.7,25.7c-37.8-1.5-334.4-1.2-367.6,0
			L17.3,10.3z"/>
		<path fill="#565354" d="M17.4,10.2c0.1-1.3,13.1-2.3,14.3-2.3h337.2c1.3,0,14.1,1.1,14.2,2.3l0.7,25.7
			c-34.9-1.4-336.7-1.1-367.3,0L17.4,10.2z"/>
		<path fill="#524F50" d="M17.4,10.1c0.1-1.2,13.2-2.1,14.4-2.1h336.9c1.2,0,14.2,1,14.3,2.2l0.6,25.7c-32-1.3-338.9-1-367,0
			L17.4,10.1z"/>
		<path fill="#4D4A4C" d="M17.5,10C17.6,8.9,30.9,8,32,8h336.5c1.1,0,14.3,0.9,14.4,2l0.6,25.6c-29.1-1.2-341.2-0.9-366.7,0L17.5,10
			z"/>
		<path fill="#494647" d="M17.6,9.9c0.1-1,13.6-1.8,14.6-1.8h336.2c1,0,14.4,0.8,14.5,1.8l0.5,25.6c-26.2-1-343.4-0.8-366.4,0
			L17.6,9.9z"/>
		<path fill="#454143" d="M17.6,9.7c0.1-0.9,13.8-1.6,14.7-1.6h335.8c0.9,0,14.5,0.7,14.5,1.6l0.4,25.6c-23.2-0.9-345.6-0.7-366.1,0
			L17.6,9.7z"/>
		<path fill="#403D3F" d="M17.7,9.6c0.1-0.8,14-1.4,14.8-1.4h335.5c0.8,0,14.6,0.6,14.6,1.4l0.4,25.6c-20.3-0.8-347.9-0.6-365.8,0
			L17.7,9.6z"/>
		<path fill="#3C383A" d="M17.8,9.5C17.8,8.9,32,8.4,32.6,8.4h335.1c0.6,0,14.7,0.5,14.7,1.2l0.3,25.6c-17.4-0.7-350.1-0.5-365.5,0
			L17.8,9.5z"/>
		<path fill="#383436" d="M17.8,9.4c0.1-0.5,14.4-1,14.9-1h334.8c0.5,0,14.8,0.4,14.8,1l0.3,25.6c-14.5-0.6-352.4-0.5-365.2,0
			L17.8,9.4z"/>
		<path fill="#333031" d="M17.9,9.3c0-0.4,14.6-0.8,15-0.8h334.4c0.4,0,14.9,0.4,14.9,0.8l0.2,25.6c-11.6-0.5-354.6-0.4-364.9,0
			L17.9,9.3z"/>
		<path fill="#2F2B2D" d="M18,9.2c0-0.3,14.8-0.6,15.1-0.6h334.1c0.3,0,15,0.3,15,0.6l0.2,25.6c-8.7-0.3-356.9-0.3-364.5,0L18,9.2z"
			/>
		<path fill="#2B2729" d="M18,9.1c0-0.2,15-0.4,15.2-0.4H367c0.2,0,15.1,0.2,15.1,0.4l0.1,25.6c-5.8-0.2-359.1-0.2-364.2,0L18,9.1z"
			/>
		<path fill="#262224" d="M18.1,9c0-0.1,15.2-0.2,15.3-0.2h333.4c0.1,0,15.2,0.1,15.2,0.2l0.1,25.6c-2.9-0.1-361.4-0.1-363.9,0
			L18.1,9z"/>
		<rect x="18.2" y="8.9" fill="#221E20" width="363.6" height="25.6"/>
	</g>
</g>
<path id="Menu_x5F_BG" fill="#FFFFFF" d="M400,5c0-2.8-2.2-5-5-5H5C2.2,0,0,2.2,0,5v26.2c0,2.8,2.2,5,5,5h390c2.8,0,5-2.2,5-5V5z"/>
</svg>
