<?xml version="1.0" encoding="UTF-8" standalone="no"?>
<svg
   xmlns:dc="http://purl.org/dc/elements/1.1/"
   xmlns:cc="http://creativecommons.org/ns#"
   xmlns:rdf="http://www.w3.org/1999/02/22-rdf-syntax-ns#"
   xmlns:svg="http://www.w3.org/2000/svg"
   xmlns="http://www.w3.org/2000/svg"
   xmlns:sodipodi="http://sodipodi.sourceforge.net/DTD/sodipodi-0.dtd"
   xmlns:inkscape="http://www.inkscape.org/namespaces/inkscape"
   id="Layer_1"
   data-name="Layer 1"
   viewBox="0 0 180.00001 180.00001"
   version="1.1"
   sodipodi:docname="ig.svg"
   width="180"
   height="180"
   inkscape:version="0.92.4 (5da689c313, 2019-01-14)">
  <metadata
     id="metadata30">
    <rdf:RDF>
      <cc:Work
         rdf:about="">
        <dc:format>image/svg+xml</dc:format>
        <dc:type
           rdf:resource="http://purl.org/dc/dcmitype/StillImage" />
        <dc:title>19.108_V&amp;amp;D_Iconen-Site_01</dc:title>
      </cc:Work>
    </rdf:RDF>
  </metadata>
  <sodipodi:namedview
     pagecolor="#ffffff"
     bordercolor="#666666"
     borderopacity="1"
     objecttolerance="10"
     gridtolerance="10"
     guidetolerance="10"
     inkscape:pageopacity="0"
     inkscape:pageshadow="2"
     inkscape:window-width="1920"
     inkscape:window-height="1016"
     id="namedview28"
     showgrid="false"
     inkscape:pagecheckerboard="true"
     inkscape:zoom="2.9492698"
     inkscape:cx="141.73"
     inkscape:cy="141.73"
     inkscape:window-x="0"
     inkscape:window-y="27"
     inkscape:window-maximized="1"
     inkscape:current-layer="Layer_1" />
  <defs
     id="defs17">
    <style
       id="style15">.cls-1{fill:#fff;}</style>
  </defs>
  <title
     id="title19">19.108_V&amp;amp;D_Iconen-Site_01</title>
  <path
     class="cls-1"
     d="M 107.45928,90.810193 A 16.49626,16.49626 0 1 1 90.977693,74.313933 16.481583,16.481583 0 0 1 107.45928,90.810193"
     id="path21"
     inkscape:connector-curvature="0"
     style="fill:#ffffff;stroke-width:1.46763873" />
  <path
     class="cls-1"
     d="m 117.38051,70.336632 a 5.8705551,5.8705551 0 1 1 5.94394,-5.870555 5.8705551,5.8705551 0 0 1 -5.94394,5.870555 M 90.963016,116.2297 A 25.419504,25.419504 0 1 1 116.36784,90.810193 25.43418,25.43418 0 0 1 90.963016,116.2297 M 129.53256,61.618862 a 16.437554,16.437554 0 0 0 -9.39288,-9.392888 27.254052,27.254052 0 0 0 -9.18742,-1.687784 c -5.21012,-0.249499 -6.78049,-0.308204 -19.989244,-0.308204 -13.208748,0 -14.793798,0 -20.003916,0.293527 a 27.356787,27.356787 0 0 0 -9.187419,1.702461 15.322149,15.322149 0 0 0 -5.694438,3.713126 15.102003,15.102003 0 0 0 -3.713126,5.679762 27.532903,27.532903 0 0 0 -1.702461,9.187415 c -0.234822,5.224794 -0.278852,6.780491 -0.278852,20.003916 0,13.223427 0,14.779127 0.278852,20.003917 a 27.444845,27.444845 0 0 0 1.702461,9.18742 16.408201,16.408201 0 0 0 9.407564,9.39289 26.975201,26.975201 0 0 0 9.275477,1.68778 c 5.210118,0.2495 6.780491,0.29353 19.98924,0.29353 13.208752,0 14.793802,0 20.003912,-0.29353 a 27.151317,27.151317 0 0 0 9.18742,-1.70246 16.408201,16.408201 0 0 0 9.39289,-9.39289 27.444845,27.444845 0 0 0 1.70246,-9.18742 c 0.23482,-5.22479 0.29353,-6.79516 0.29353,-20.003913 0,-13.208749 0,-14.779123 -0.29353,-20.003917 a 27.532903,27.532903 0 0 0 -1.70246,-9.187414"
     id="path23"
     inkscape:connector-curvature="0"
     style="fill:#ffffff;stroke-width:1.46763873" />
  <path
     class="cls-1"
     d="m 140.15827,111.22505 a 35.913121,35.913121 0 0 1 -2.30419,12.00528 25.27274,25.27274 0 0 1 -14.47092,14.47092 36.206648,36.206648 0 0 1 -12.00529,2.30419 c -5.2835,0.2495 -6.97128,0.29353 -20.414854,0.29353 -13.443571,0 -15.116679,0 -20.400178,-0.29353 A 36.382765,36.382765 0 0 1 58.542876,137.70125 25.331445,25.331445 0 0 1 44.071958,123.23033 36.294707,36.294707 0 0 1 41.767765,111.22505 c -0.234822,-5.2835 -0.293528,-6.97129 -0.293528,-20.414857 0,-13.443571 0,-15.131356 0.293528,-20.400179 A 36.382765,36.382765 0 0 1 44.071958,58.390057 25.331445,25.331445 0 0 1 58.542876,43.919139 36.382765,36.382765 0 0 1 70.562838,41.55624 c 5.283499,-0.234822 6.956607,-0.293527 20.400178,-0.293527 13.443574,0 15.131354,0 20.414854,0.293527 a 36.206648,36.206648 0 0 1 12.00529,2.304193 25.331445,25.331445 0 0 1 14.47092,14.470919 36.015855,36.015855 0 0 1 2.30419,12.019957 c 0.2495,5.268823 0.29353,6.956607 0.29353,20.400179 0,13.443572 0,15.131352 -0.29353,20.414852 M 90.963016,4.615774 A 86.194425,86.194425 0 1 0 177.15744,90.810193 86.209101,86.209101 0 0 0 90.963016,4.615774"
     id="path25"
     inkscape:connector-curvature="0"
     style="fill:#ffffff;stroke-width:1.46763873" />
</svg>
