<?xml version="1.0" encoding="UTF-8" standalone="no"?>
<svg
   xmlns:dc="http://purl.org/dc/elements/1.1/"
   xmlns:cc="http://creativecommons.org/ns#"
   xmlns:rdf="http://www.w3.org/1999/02/22-rdf-syntax-ns#"
   xmlns:svg="http://www.w3.org/2000/svg"
   xmlns="http://www.w3.org/2000/svg"
   xmlns:sodipodi="http://sodipodi.sourceforge.net/DTD/sodipodi-0.dtd"
   xmlns:inkscape="http://www.inkscape.org/namespaces/inkscape"
   viewBox="0 0 180 180"
   height="180"
   width="180"
   xml:space="preserve"
   version="1.1"
   id="svg2"
   sodipodi:docname="pt.svg"
   inkscape:version="0.92.4 (5da689c313, 2019-01-14)"><sodipodi:namedview
     pagecolor="#ffffff"
     bordercolor="#666666"
     borderopacity="1"
     objecttolerance="10"
     gridtolerance="10"
     guidetolerance="10"
     inkscape:pageopacity="0"
     inkscape:pageshadow="2"
     inkscape:window-width="1920"
     inkscape:window-height="1016"
     id="namedview33"
     showgrid="false"
     inkscape:zoom="4.6444444"
     inkscape:cx="90"
     inkscape:cy="90"
     inkscape:window-x="0"
     inkscape:window-y="27"
     inkscape:window-maximized="1"
     inkscape:current-layer="g16"
     inkscape:pagecheckerboard="true" /><metadata
     id="metadata8"><rdf:RDF><cc:Work
         rdf:about=""><dc:format>image/svg+xml</dc:format><dc:type
           rdf:resource="http://purl.org/dc/dcmitype/StillImage" /><dc:title></dc:title></cc:Work></rdf:RDF></metadata><defs
     id="defs6"><clipPath
       id="clipPath18"
       clipPathUnits="userSpaceOnUse"><path
         id="path20"
         d="M 0,250 H 1023 V 0 H 0 Z"
         inkscape:connector-curvature="0" /></clipPath></defs><g
     clip-path="url(#clipPath18)"
     id="g16"
     transform="matrix(1.25,0,0,-1.25,0,180)"><g
       transform="translate(438.5334,187.0405)"
       id="g26" /><g
       transform="translate(598.0783,82.2812)"
       id="g46" /><g
       transform="matrix(1.275806,0,0,1.275806,159.4443,314.28435)"
       id="g62"
       style="fill:#ffffff"><path
         id="path64"
         style="fill:#ffffff;fill-opacity:1;fill-rule:nonzero;stroke:none;stroke-width:0.44026875"
         d="m -68.282736,-136.56547 c -29.662666,0 -53.709264,-24.0466 -53.709264,-53.70927 0,-22.75396 14.15684,-42.20548 34.136237,-50.03125 -0.469327,4.24947 -0.893746,10.78482 0.186233,15.42393 0.976076,4.1918 6.298045,26.69702 6.298045,26.69702 0,0 -1.606541,3.21748 -1.606541,7.97414 0,7.46828 4.328722,13.04385 9.718492,13.04385 4.582317,0 6.795548,-3.44026 6.795548,-7.56558 0,-4.6083 -2.933951,-11.49806 -4.448035,-17.88284 -1.265332,-5.34574 2.680797,-9.70528 7.953455,-9.70528 9.545907,0 16.883866,10.06542 16.883866,24.59473 0,12.85981 -9.24036,21.85098 -22.434774,21.85098 -15.282168,0 -24.252204,-11.4624 -24.252204,-23.30827 0,-4.61622 1.778246,-9.56616 3.9972,-12.25708 0.438948,-0.53185 0.503227,-0.99765 0.372467,-1.5405 -0.407688,-1.69636 -1.313761,-5.34442 -1.49163,-6.09112 -0.234223,-0.98312 -0.778395,-1.19181 -1.796296,-0.71808 -6.707935,3.12239 -10.901933,12.92981 -10.901933,20.8071 0,16.94242 12.309912,32.50196 35.48786,32.50196 18.631733,0 33.110851,-13.27674 33.110851,-31.02001 0,-18.51022 -11.671084,-33.40715 -27.870332,-33.40715 -5.442603,0 -10.558966,2.8274 -12.310355,6.16728 0,0 -2.693124,-10.25474 -3.346042,-12.76779 -1.2125,-4.66509 -4.485898,-10.51274 -6.675355,-14.08024 5.025228,-1.55591 10.365688,-2.39506 15.902507,-2.39506 29.663107,0 53.709705,24.0466 53.709705,53.70926 0,29.66267 -24.046598,53.70927 -53.709705,53.70927"
         inkscape:connector-curvature="0" /></g></g></svg>